<svg version="1.1" viewBox="0.0 0.0 600.0 371.0" fill="none" stroke="none" stroke-linecap="square" stroke-miterlimit="10" width="600" height="371" xmlns:xlink="http://www.w3.org/1999/xlink" xmlns="http://www.w3.org/2000/svg"><path fill="#ffffff" d="M0 0L600.0 0L600.0 371.0L0 371.0L0 0Z" fill-rule="nonzero"/><path stroke="#cccccc" stroke-width="1.0" stroke-linecap="butt" d="M45.5 332.5L581.5 332.5" fill-rule="nonzero"/><path stroke="#cccccc" stroke-width="1.0" stroke-linecap="butt" d="M45.5 230.5L581.5 230.5" fill-rule="nonzero"/><path stroke="#cccccc" stroke-width="1.0" stroke-linecap="butt" d="M45.5 127.5L581.5 127.5" fill-rule="nonzero"/><path stroke="#cccccc" stroke-width="1.0" stroke-linecap="butt" d="M45.5 25.5L581.5 25.5" fill-rule="nonzero"/><clipPath id="id_0"><path d="M45.55 25.55L581.45 25.55L581.45 332.45L45.55 332.45L45.55 25.55Z" clip-rule="nonzero"/></clipPath><path stroke="#000000" stroke-width="0.0" stroke-linecap="butt" stroke-opacity="0.0" clip-path="url(#id_0)" d="M146.0 332.0L81.0 332.0L81.0 199.0C81.0 197.89543 81.89543 197.0 83.0 197.0L144.0 197.0C145.10457 197.0 146.0 197.89543 146.0 199.0Z" fill-rule="nonzero"/><path fill="#9725c0" clip-path="url(#id_0)" d="M146.0 332.0L81.0 332.0L81.0 199.0C81.0 197.89543 81.89543 197.0 83.0 197.0L144.0 197.0C145.10457 197.0 146.0 197.89543 146.0 199.0Z" fill-rule="nonzero"/><path stroke="#000000" stroke-width="0.0" stroke-linecap="butt" stroke-opacity="0.0" clip-path="url(#id_0)" d="M246.0 332.0L181.0 332.0L181.0 142.0C181.0 140.89543 181.89543 140.0 183.0 140.0L244.0 140.0C245.10457 140.0 246.0 140.89543 246.0 142.0Z" fill-rule="nonzero"/><path fill="#229330" clip-path="url(#id_0)" d="M246.0 332.0L181.0 332.0L181.0 142.0C181.0 140.89543 181.89543 140.0 183.0 140.0L244.0 140.0C245.10457 140.0 246.0 140.89543 246.0 142.0Z" fill-rule="nonzero"/><path stroke="#000000" stroke-width="0.0" stroke-linecap="butt" stroke-opacity="0.0" clip-path="url(#id_0)" d="M347.0 332.0L282.0 332.0L282.0 107.0C282.0 105.89543 282.89542 105.0 284.0 105.0L345.0 105.0C346.10458 105.0 347.0 105.89543 347.0 107.0Z" fill-rule="nonzero"/><path fill="#002b7f" clip-path="url(#id_0)" d="M347.0 332.0L282.0 332.0L282.0 107.0C282.0 105.89543 282.89542 105.0 284.0 105.0L345.0 105.0C346.10458 105.0 347.0 105.89543 347.0 107.0Z" fill-rule="nonzero"/><path stroke="#000000" stroke-width="0.0" stroke-linecap="butt" stroke-opacity="0.0" clip-path="url(#id_0)" d="M447.0 332.0L382.0 332.0L382.0 64.0C382.0 62.89543 382.89542 62.0 384.0 62.0L445.0 62.0C446.10458 62.0 447.0 62.89543 447.0 64.0Z" fill-rule="nonzero"/><path fill="#fcd116" clip-path="url(#id_0)" d="M447.0 332.0L382.0 332.0L382.0 64.0C382.0 62.89543 382.89542 62.0 384.0 62.0L445.0 62.0C446.10458 62.0 447.0 62.89543 447.0 64.0Z" fill-rule="nonzero"/><path stroke="#000000" stroke-width="0.0" stroke-linecap="butt" stroke-opacity="0.0" clip-path="url(#id_0)" d="M547.0 332.0L482.0 332.0L482.0 44.0C482.0 42.89543 482.89542 42.0 484.0 42.0L545.0 42.0C546.10455 42.0 547.0 42.89543 547.0 44.0Z" fill-rule="nonzero"/><path fill="#ce1126" clip-path="url(#id_0)" d="M547.0 332.0L482.0 332.0L482.0 44.0C482.0 42.89543 482.89542 42.0 484.0 42.0L545.0 42.0C546.10455 42.0 547.0 42.89543 547.0 44.0Z" fill-rule="nonzero"/><path stroke="#9725c0" stroke-width="3.0" stroke-linejoin="round" stroke-linecap="round" d="M104.875 213.214L104.875 211.1515L101.15625 211.1515L101.15625 210.18275L105.078125 204.62025L105.9375 204.62025L105.9375 210.18275L107.09375 210.18275L107.09375 211.1515L105.9375 211.1515L105.9375 213.214L104.875 213.214ZM104.875 210.18275L104.875 206.32338L102.1875 210.18275L104.875 210.18275ZM112.46875 213.214L111.421875 213.214L111.421875 206.49525Q111.03125 206.85463 110.40625 207.22963Q109.796875 207.589 109.3125 207.76088L109.3125 206.74525Q110.1875 206.32338 110.84375 205.74525Q111.515625 205.1515 111.796875 204.589L112.46875 204.589L112.46875 213.214ZM116.09375 213.214L116.09375 212.01088L117.296875 212.01088L117.296875 213.214L116.09375 213.214ZM123.96875 206.72963L122.921875 206.80775Q122.78125 206.18275 122.53125 205.9015Q122.09375 205.44838 121.46875 205.44838Q120.96875 205.44838 120.578125 205.72963Q120.09375 206.10463 119.796875 206.80775Q119.515625 207.49525 119.5 208.7765Q119.875 208.19838 120.421875 207.91713Q120.984375 207.63588 121.59375 207.63588Q122.640625 207.63588 123.375 208.41713Q124.125 209.19838 124.125 210.41713Q124.125 211.22963 123.765625 211.93275Q123.421875 212.62025 122.8125 212.99525Q122.203125 213.35463 121.4375 213.35463Q120.109375 213.35463 119.28125 212.38588Q118.453125 211.41713 118.453125 209.19838Q118.453125 206.69838 119.375 205.57338Q120.171875 204.589 121.53125 204.589Q122.546875 204.589 123.1875 205.16713Q123.84375 205.72963 123.96875 206.72963ZM119.671875 210.43275Q119.671875 210.97963 119.890625 211.47963Q120.125 211.964 120.53125 212.22963Q120.953125 212.49525 121.421875 212.49525Q122.078125 212.49525 122.5625 211.964Q123.046875 211.41713 123.046875 210.49525Q123.046875 209.60463 122.5625 209.089Q122.09375 208.57338 121.375 208.57338Q120.65625 208.57338 120.15625 209.089Q119.671875 209.60463 119.671875 210.43275Z" fill-rule="nonzero"/><path fill="#ffffff" d="M104.875 213.214L104.875 211.1515L101.15625 211.1515L101.15625 210.18275L105.078125 204.62025L105.9375 204.62025L105.9375 210.18275L107.09375 210.18275L107.09375 211.1515L105.9375 211.1515L105.9375 213.214L104.875 213.214ZM104.875 210.18275L104.875 206.32338L102.1875 210.18275L104.875 210.18275ZM112.46875 213.214L111.421875 213.214L111.421875 206.49525Q111.03125 206.85463 110.40625 207.22963Q109.796875 207.589 109.3125 207.76088L109.3125 206.74525Q110.1875 206.32338 110.84375 205.74525Q111.515625 205.1515 111.796875 204.589L112.46875 204.589L112.46875 213.214ZM116.09375 213.214L116.09375 212.01088L117.296875 212.01088L117.296875 213.214L116.09375 213.214ZM123.96875 206.72963L122.921875 206.80775Q122.78125 206.18275 122.53125 205.9015Q122.09375 205.44838 121.46875 205.44838Q120.96875 205.44838 120.578125 205.72963Q120.09375 206.10463 119.796875 206.80775Q119.515625 207.49525 119.5 208.7765Q119.875 208.19838 120.421875 207.91713Q120.984375 207.63588 121.59375 207.63588Q122.640625 207.63588 123.375 208.41713Q124.125 209.19838 124.125 210.41713Q124.125 211.22963 123.765625 211.93275Q123.421875 212.62025 122.8125 212.99525Q122.203125 213.35463 121.4375 213.35463Q120.109375 213.35463 119.28125 212.38588Q118.453125 211.41713 118.453125 209.19838Q118.453125 206.69838 119.375 205.57338Q120.171875 204.589 121.53125 204.589Q122.546875 204.589 123.1875 205.16713Q123.84375 205.72963 123.96875 206.72963ZM119.671875 210.43275Q119.671875 210.97963 119.890625 211.47963Q120.125 211.964 120.53125 212.22963Q120.953125 212.49525 121.421875 212.49525Q122.078125 212.49525 122.5625 211.964Q123.046875 211.41713 123.046875 210.49525Q123.046875 209.60463 122.5625 209.089Q122.09375 208.57338 121.375 208.57338Q120.65625 208.57338 120.15625 209.089Q119.671875 209.60463 119.671875 210.43275Z" fill-rule="nonzero"/><path stroke="#229330" stroke-width="3.0" stroke-linejoin="round" stroke-linecap="round" d="M204.875 155.926L204.875 153.8635L201.15625 153.8635L201.15625 152.89474L205.07812 147.33224L205.9375 147.33224L205.9375 152.89474L207.09375 152.89474L207.09375 153.8635L205.9375 153.8635L205.9375 155.926L204.875 155.926ZM204.875 152.89474L204.875 149.03537L202.1875 152.89474L204.875 152.89474ZM211.875 155.926L211.875 153.8635L208.15625 153.8635L208.15625 152.89474L212.07812 147.33224L212.9375 147.33224L212.9375 152.89474L214.09375 152.89474L214.09375 153.8635L212.9375 153.8635L212.9375 155.926L211.875 155.926ZM211.875 152.89474L211.875 149.03537L209.1875 152.89474L211.875 152.89474ZM216.09375 155.926L216.09375 154.72287L217.29688 154.72287L217.29688 155.926L216.09375 155.926ZM221.875 155.926L221.875 153.8635L218.15625 153.8635L218.15625 152.89474L222.07812 147.33224L222.9375 147.33224L222.9375 152.89474L224.09375 152.89474L224.09375 153.8635L222.9375 153.8635L222.9375 155.926L221.875 155.926ZM221.875 152.89474L221.875 149.03537L219.1875 152.89474L221.875 152.89474Z" fill-rule="nonzero"/><path fill="#ffffff" d="M204.875 155.926L204.875 153.8635L201.15625 153.8635L201.15625 152.89474L205.07812 147.33224L205.9375 147.33224L205.9375 152.89474L207.09375 152.89474L207.09375 153.8635L205.9375 153.8635L205.9375 155.926L204.875 155.926ZM204.875 152.89474L204.875 149.03537L202.1875 152.89474L204.875 152.89474ZM211.875 155.926L211.875 153.8635L208.15625 153.8635L208.15625 152.89474L212.07812 147.33224L212.9375 147.33224L212.9375 152.89474L214.09375 152.89474L214.09375 153.8635L212.9375 153.8635L212.9375 155.926L211.875 155.926ZM211.875 152.89474L211.875 149.03537L209.1875 152.89474L211.875 152.89474ZM216.09375 155.926L216.09375 154.72287L217.29688 154.72287L217.29688 155.926L216.09375 155.926ZM221.875 155.926L221.875 153.8635L218.15625 153.8635L218.15625 152.89474L222.07812 147.33224L222.9375 147.33224L222.9375 152.89474L224.09375 152.89474L224.09375 153.8635L222.9375 153.8635L222.9375 155.926L221.875 155.926ZM221.875 152.89474L221.875 149.03537L219.1875 152.89474L221.875 152.89474Z" fill-rule="nonzero"/><path stroke="#002b7f" stroke-width="3.0" stroke-linejoin="round" stroke-linecap="round" d="M305.875 121.144L305.875 119.0815L302.15625 119.0815L302.15625 118.11275L306.07812 112.55025L306.9375 112.55025L306.9375 118.11275L308.09375 118.11275L308.09375 119.0815L306.9375 119.0815L306.9375 121.144L305.875 121.144ZM305.875 118.11275L305.875 114.25337L303.1875 118.11275L305.875 118.11275ZM314.96875 114.65962L313.92188 114.73775Q313.78125 114.11275 313.53125 113.8315Q313.09375 113.37837 312.46875 113.37837Q311.96875 113.37837 311.57812 113.65962Q311.09375 114.03462 310.79688 114.73775Q310.51562 115.42525 310.5 116.7065Q310.875 116.12837 311.42188 115.84712Q311.98438 115.56587 312.59375 115.56587Q313.64062 115.56587 314.375 116.34712Q315.125 117.12837 315.125 118.34712Q315.125 119.15962 314.76562 119.86275Q314.42188 120.55025 313.8125 120.92525Q313.20312 121.28462 312.4375 121.28462Q311.10938 121.28462 310.28125 120.31587Q309.45312 119.34712 309.45312 117.12837Q309.45312 114.62837 310.375 113.50337Q311.17188 112.519 312.53125 112.519Q313.54688 112.519 314.1875 113.09712Q314.84375 113.65962 314.96875 114.65962ZM310.67188 118.36275Q310.67188 118.90962 310.89062 119.40962Q311.125 119.894 311.53125 120.15962Q311.95312 120.42525 312.42188 120.42525Q313.07812 120.42525 313.5625 119.894Q314.04688 119.34712 314.04688 118.42525Q314.04688 117.53462 313.5625 117.019Q313.09375 116.50337 312.375 116.50337Q311.65625 116.50337 311.15625 117.019Q310.67188 117.53462 310.67188 118.36275ZM317.09375 121.144L317.09375 119.94087L318.29688 119.94087L318.29688 121.144L317.09375 121.144ZM323.46875 121.144L322.42188 121.144L322.42188 114.42525Q322.03125 114.78462 321.40625 115.15962Q320.79688 115.519 320.3125 115.69087L320.3125 114.67525Q321.1875 114.25337 321.84375 113.67525Q322.51562 113.0815 322.79688 112.519L323.46875 112.519L323.46875 121.144Z" fill-rule="nonzero"/><path fill="#ffffff" d="M305.875 121.144L305.875 119.0815L302.15625 119.0815L302.15625 118.11275L306.07812 112.55025L306.9375 112.55025L306.9375 118.11275L308.09375 118.11275L308.09375 119.0815L306.9375 119.0815L306.9375 121.144L305.875 121.144ZM305.875 118.11275L305.875 114.25337L303.1875 118.11275L305.875 118.11275ZM314.96875 114.65962L313.92188 114.73775Q313.78125 114.11275 313.53125 113.8315Q313.09375 113.37837 312.46875 113.37837Q311.96875 113.37837 311.57812 113.65962Q311.09375 114.03462 310.79688 114.73775Q310.51562 115.42525 310.5 116.7065Q310.875 116.12837 311.42188 115.84712Q311.98438 115.56587 312.59375 115.56587Q313.64062 115.56587 314.375 116.34712Q315.125 117.12837 315.125 118.34712Q315.125 119.15962 314.76562 119.86275Q314.42188 120.55025 313.8125 120.92525Q313.20312 121.28462 312.4375 121.28462Q311.10938 121.28462 310.28125 120.31587Q309.45312 119.34712 309.45312 117.12837Q309.45312 114.62837 310.375 113.50337Q311.17188 112.519 312.53125 112.519Q313.54688 112.519 314.1875 113.09712Q314.84375 113.65962 314.96875 114.65962ZM310.67188 118.36275Q310.67188 118.90962 310.89062 119.40962Q311.125 119.894 311.53125 120.15962Q311.95312 120.42525 312.42188 120.42525Q313.07812 120.42525 313.5625 119.894Q314.04688 119.34712 314.04688 118.42525Q314.04688 117.53462 313.5625 117.019Q313.09375 116.50337 312.375 116.50337Q311.65625 116.50337 311.15625 117.019Q310.67188 117.53462 310.67188 118.36275ZM317.09375 121.144L317.09375 119.94087L318.29688 119.94087L318.29688 121.144L317.09375 121.144ZM323.46875 121.144L322.42188 121.144L322.42188 114.42525Q322.03125 114.78462 321.40625 115.15962Q320.79688 115.519 320.3125 115.69087L320.3125 114.67525Q321.1875 114.25337 321.84375 113.67525Q322.51562 113.0815 322.79688 112.519L323.46875 112.519L323.46875 121.144Z" fill-rule="nonzero"/><path stroke="#fcd116" stroke-width="3.0" stroke-linejoin="round" stroke-linecap="round" d="M405.875 78.178L405.875 76.1155L402.15625 76.1155L402.15625 75.14675L406.07812 69.58425L406.9375 69.58425L406.9375 75.14675L408.09375 75.14675L408.09375 76.1155L406.9375 76.1155L406.9375 78.178L405.875 78.178ZM405.875 75.14675L405.875 71.28738L403.1875 75.14675L405.875 75.14675ZM411.125 73.52175Q410.46875 73.27175 410.14062 72.83425Q409.82812 72.38113 409.82812 71.77175Q409.82812 70.83425 410.5 70.19363Q411.1875 69.553 412.29688 69.553Q413.42188 69.553 414.10938 70.20925Q414.79688 70.8655 414.79688 71.803Q414.79688 72.39675 414.48438 72.83425Q414.17188 73.27175 413.53125 73.52175Q414.32812 73.77175 414.73438 74.34988Q415.14062 74.928 415.14062 75.72488Q415.14062 76.81863 414.35938 77.56863Q413.59375 78.31863 412.3125 78.31863Q411.04688 78.31863 410.26562 77.56863Q409.48438 76.81863 409.48438 75.69363Q409.48438 74.84988 409.90625 74.28738Q410.34375 73.72488 411.125 73.52175ZM410.90625 71.72488Q410.90625 72.33425 411.29688 72.72488Q411.70312 73.1155 412.32812 73.1155Q412.9375 73.1155 413.32812 72.7405Q413.71875 72.34988 413.71875 71.78738Q413.71875 71.20925 413.3125 70.81863Q412.90625 70.41238 412.3125 70.41238Q411.70312 70.41238 411.29688 70.803Q410.90625 71.19363 410.90625 71.72488ZM410.57812 75.69363Q410.57812 76.14675 410.78125 76.56863Q411.0 76.9905 411.42188 77.22488Q411.84375 77.45925 412.32812 77.45925Q413.07812 77.45925 413.5625 76.97488Q414.0625 76.4905 414.0625 75.7405Q414.0625 74.97488 413.5625 74.47488Q413.0625 73.97488 412.29688 73.97488Q411.54688 73.97488 411.0625 74.47488Q410.57812 74.95925 410.57812 75.69363ZM417.09375 78.178L417.09375 76.97488L418.29688 76.97488L418.29688 78.178L417.09375 78.178ZM425.04688 77.16238L425.04688 78.178L419.35938 78.178Q419.35938 77.803 419.48438 77.44363Q419.70312 76.8655 420.17188 76.303Q420.65625 75.7405 421.5625 75.00613Q422.96875 73.84988 423.45312 73.178Q423.95312 72.50613 423.95312 71.91238Q423.95312 71.28738 423.5 70.8655Q423.04688 70.428 422.32812 70.428Q421.5625 70.428 421.10938 70.88113Q420.65625 71.33425 420.64062 72.14675L419.5625 72.03738Q419.67188 70.81863 420.39062 70.19363Q421.125 69.553 422.35938 69.553Q423.59375 69.553 424.3125 70.2405Q425.03125 70.928 425.03125 71.94363Q425.03125 72.45925 424.8125 72.95925Q424.60938 73.44363 424.10938 74.00613Q423.625 74.553 422.5 75.50613Q421.54688 76.303 421.26562 76.59988Q421.0 76.88113 420.82812 77.16238L425.04688 77.16238Z" fill-rule="nonzero"/><path fill="#000000" d="M405.875 78.178L405.875 76.1155L402.15625 76.1155L402.15625 75.14675L406.07812 69.58425L406.9375 69.58425L406.9375 75.14675L408.09375 75.14675L408.09375 76.1155L406.9375 76.1155L406.9375 78.178L405.875 78.178ZM405.875 75.14675L405.875 71.28738L403.1875 75.14675L405.875 75.14675ZM411.125 73.52175Q410.46875 73.27175 410.14062 72.83425Q409.82812 72.38113 409.82812 71.77175Q409.82812 70.83425 410.5 70.19363Q411.1875 69.553 412.29688 69.553Q413.42188 69.553 414.10938 70.20925Q414.79688 70.8655 414.79688 71.803Q414.79688 72.39675 414.48438 72.83425Q414.17188 73.27175 413.53125 73.52175Q414.32812 73.77175 414.73438 74.34988Q415.14062 74.928 415.14062 75.72488Q415.14062 76.81863 414.35938 77.56863Q413.59375 78.31863 412.3125 78.31863Q411.04688 78.31863 410.26562 77.56863Q409.48438 76.81863 409.48438 75.69363Q409.48438 74.84988 409.90625 74.28738Q410.34375 73.72488 411.125 73.52175ZM410.90625 71.72488Q410.90625 72.33425 411.29688 72.72488Q411.70312 73.1155 412.32812 73.1155Q412.9375 73.1155 413.32812 72.7405Q413.71875 72.34988 413.71875 71.78738Q413.71875 71.20925 413.3125 70.81863Q412.90625 70.41238 412.3125 70.41238Q411.70312 70.41238 411.29688 70.803Q410.90625 71.19363 410.90625 71.72488ZM410.57812 75.69363Q410.57812 76.14675 410.78125 76.56863Q411.0 76.9905 411.42188 77.22488Q411.84375 77.45925 412.32812 77.45925Q413.07812 77.45925 413.5625 76.97488Q414.0625 76.4905 414.0625 75.7405Q414.0625 74.97488 413.5625 74.47488Q413.0625 73.97488 412.29688 73.97488Q411.54688 73.97488 411.0625 74.47488Q410.57812 74.95925 410.57812 75.69363ZM417.09375 78.178L417.09375 76.97488L418.29688 76.97488L418.29688 78.178L417.09375 78.178ZM425.04688 77.16238L425.04688 78.178L419.35938 78.178Q419.35938 77.803 419.48438 77.44363Q419.70312 76.8655 420.17188 76.303Q420.65625 75.7405 421.5625 75.00613Q422.96875 73.84988 423.45312 73.178Q423.95312 72.50613 423.95312 71.91238Q423.95312 71.28738 423.5 70.8655Q423.04688 70.428 422.32812 70.428Q421.5625 70.428 421.10938 70.88113Q420.65625 71.33425 420.64062 72.14675L419.5625 72.03738Q419.67188 70.81863 420.39062 70.19363Q421.125 69.553 422.35938 69.553Q423.59375 69.553 424.3125 70.2405Q425.03125 70.928 425.03125 71.94363Q425.03125 72.45925 424.8125 72.95925Q424.60938 73.44363 424.10938 74.00613Q423.625 74.553 422.5 75.50613Q421.54688 76.303 421.26562 76.59988Q421.0 76.88113 420.82812 77.16238L425.04688 77.16238Z" fill-rule="nonzero"/><path stroke="#ce1126" stroke-width="3.0" stroke-linejoin="round" stroke-linecap="round" d="M505.875 57.718L505.875 55.6555L502.15625 55.6555L502.15625 54.68675L506.07812 49.12425L506.9375 49.12425L506.9375 54.68675L508.09375 54.68675L508.09375 55.6555L506.9375 55.6555L506.9375 57.718L505.875 57.718ZM505.875 54.68675L505.875 50.827374L503.1875 54.68675L505.875 54.68675ZM509.65625 55.733624L510.67188 55.639874Q510.79688 56.358624 511.15625 56.68675Q511.53125 56.99925 512.09375 56.99925Q512.5781 56.99925 512.9375 56.7805Q513.3125 56.546124 513.5469 56.18675Q513.78125 55.81175 513.9375 55.18675Q514.09375 54.546124 514.09375 53.889874Q514.09375 53.81175 514.09375 53.671124Q513.78125 54.171124 513.2344 54.49925Q512.6875 54.81175 512.0469 54.81175Q510.96875 54.81175 510.23438 54.046124Q509.5 53.264874 509.5 51.99925Q509.5 50.68675 510.26562 49.889874Q511.04688 49.093 512.2031 49.093Q513.03125 49.093 513.71875 49.546124Q514.4219 49.99925 514.78125 50.843Q515.1406 51.671124 515.1406 53.24925Q515.1406 54.889874 514.78125 55.87425Q514.4375 56.843 513.71875 57.358624Q513.0156 57.858624 512.0781 57.858624Q511.0625 57.858624 510.42188 57.31175Q509.78125 56.74925 509.65625 55.733624ZM513.96875 51.93675Q513.96875 51.0305 513.4844 50.49925Q513.0156 49.968 512.3281 49.968Q511.625 49.968 511.09375 50.546124Q510.57812 51.108624 510.57812 52.0305Q510.57812 52.843 511.07812 53.358624Q511.57812 53.87425 512.2969 53.87425Q513.03125 53.87425 513.5 53.358624Q513.96875 52.843 513.96875 51.93675ZM517.09375 57.718L517.09375 56.514874L518.2969 56.514874L518.2969 57.718L517.09375 57.718ZM525.0469 56.702374L525.0469 57.718L519.3594 57.718Q519.3594 57.343 519.4844 56.983624Q519.7031 56.4055 520.1719 55.843Q520.65625 55.2805 521.5625 54.546124Q522.96875 53.389874 523.4531 52.718Q523.9531 52.046124 523.9531 51.452374Q523.9531 50.827374 523.5 50.4055Q523.0469 49.968 522.3281 49.968Q521.5625 49.968 521.1094 50.421124Q520.65625 50.87425 520.6406 51.68675L519.5625 51.577374Q519.6719 50.358624 520.3906 49.733624Q521.125 49.093 522.3594 49.093Q523.59375 49.093 524.3125 49.7805Q525.03125 50.468 525.03125 51.483624Q525.03125 51.99925 524.8125 52.49925Q524.6094 52.983624 524.1094 53.546124Q523.625 54.093 522.5 55.046124Q521.5469 55.843 521.2656 56.139874Q521.0 56.421124 520.8281 56.702374L525.0469 56.702374Z" fill-rule="nonzero"/><path fill="#ffffff" d="M505.875 57.718L505.875 55.6555L502.15625 55.6555L502.15625 54.68675L506.07812 49.12425L506.9375 49.12425L506.9375 54.68675L508.09375 54.68675L508.09375 55.6555L506.9375 55.6555L506.9375 57.718L505.875 57.718ZM505.875 54.68675L505.875 50.827374L503.1875 54.68675L505.875 54.68675ZM509.65625 55.733624L510.67188 55.639874Q510.79688 56.358624 511.15625 56.68675Q511.53125 56.99925 512.09375 56.99925Q512.5781 56.99925 512.9375 56.7805Q513.3125 56.546124 513.5469 56.18675Q513.78125 55.81175 513.9375 55.18675Q514.09375 54.546124 514.09375 53.889874Q514.09375 53.81175 514.09375 53.671124Q513.78125 54.171124 513.2344 54.49925Q512.6875 54.81175 512.0469 54.81175Q510.96875 54.81175 510.23438 54.046124Q509.5 53.264874 509.5 51.99925Q509.5 50.68675 510.26562 49.889874Q511.04688 49.093 512.2031 49.093Q513.03125 49.093 513.71875 49.546124Q514.4219 49.99925 514.78125 50.843Q515.1406 51.671124 515.1406 53.24925Q515.1406 54.889874 514.78125 55.87425Q514.4375 56.843 513.71875 57.358624Q513.0156 57.858624 512.0781 57.858624Q511.0625 57.858624 510.42188 57.31175Q509.78125 56.74925 509.65625 55.733624ZM513.96875 51.93675Q513.96875 51.0305 513.4844 50.49925Q513.0156 49.968 512.3281 49.968Q511.625 49.968 511.09375 50.546124Q510.57812 51.108624 510.57812 52.0305Q510.57812 52.843 511.07812 53.358624Q511.57812 53.87425 512.2969 53.87425Q513.03125 53.87425 513.5 53.358624Q513.96875 52.843 513.96875 51.93675ZM517.09375 57.718L517.09375 56.514874L518.2969 56.514874L518.2969 57.718L517.09375 57.718ZM525.0469 56.702374L525.0469 57.718L519.3594 57.718Q519.3594 57.343 519.4844 56.983624Q519.7031 56.4055 520.1719 55.843Q520.65625 55.2805 521.5625 54.546124Q522.96875 53.389874 523.4531 52.718Q523.9531 52.046124 523.9531 51.452374Q523.9531 50.827374 523.5 50.4055Q523.0469 49.968 522.3281 49.968Q521.5625 49.968 521.1094 50.421124Q520.65625 50.87425 520.6406 51.68675L519.5625 51.577374Q519.6719 50.358624 520.3906 49.733624Q521.125 49.093 522.3594 49.093Q523.59375 49.093 524.3125 49.7805Q525.03125 50.468 525.03125 51.483624Q525.03125 51.99925 524.8125 52.49925Q524.6094 52.983624 524.1094 53.546124Q523.625 54.093 522.5 55.046124Q521.5469 55.843 521.2656 56.139874Q521.0 56.421124 520.8281 56.702374L525.0469 56.702374Z" fill-rule="nonzero"/><path fill="#000000" d="M26.05 334.1844L27.1125 334.04376Q27.284374 334.9344 27.721874 335.34064Q28.159374 335.73126 28.784374 335.73126Q29.534374 335.73126 30.05 335.21564Q30.565624 334.7 30.565624 333.9344Q30.565624 333.21564 30.08125 332.7469Q29.6125 332.2625 28.878124 332.2625Q28.58125 332.2625 28.128124 332.3875L28.253124 331.45Q28.3625 331.46564 28.425 331.46564Q29.096874 331.46564 29.628124 331.1219Q30.175 330.7625 30.175 330.02814Q30.175 329.45 29.784374 329.075Q29.39375 328.6844 28.76875 328.6844Q28.159374 328.6844 27.7375 329.075Q27.33125 329.46564 27.221874 330.23126L26.159374 330.04376Q26.346874 328.9969 27.034374 328.41876Q27.721874 327.825 28.7375 327.825Q29.440624 327.825 30.034374 328.1375Q30.628124 328.4344 30.940624 328.95Q31.253124 329.46564 31.253124 330.0594Q31.253124 330.60626 30.95625 331.075Q30.659374 331.52814 30.08125 331.79376Q30.83125 331.96564 31.253124 332.52814Q31.675 333.075 31.675 333.91876Q31.675 335.04376 30.846874 335.825Q30.034374 336.60626 28.784374 336.60626Q27.659374 336.60626 26.909374 335.9344Q26.159374 335.2469 26.05 334.1844ZM33.05 334.2L34.159374 334.10626Q34.284374 334.91876 34.721874 335.325Q35.175 335.73126 35.815624 335.73126Q36.565624 335.73126 37.096874 335.15314Q37.628124 334.575 37.628124 333.6375Q37.628124 332.73126 37.1125 332.21564Q36.6125 331.6844 35.784374 331.6844Q35.284374 331.6844 34.8625 331.91876Q34.45625 332.15314 34.221874 332.5125L33.2375 332.3875L34.065624 327.98126L38.346874 327.98126L38.346874 328.98126L34.909374 328.98126L34.45625 331.29376Q35.221874 330.7469 36.065624 330.7469Q37.190624 330.7469 37.95625 331.52814Q38.7375 332.3094 38.7375 333.54376Q38.7375 334.7 38.065624 335.5594Q37.2375 336.59064 35.815624 336.59064Q34.64375 336.59064 33.89375 335.9344Q33.159374 335.27814 33.05 334.2Z" fill-rule="nonzero"/><path fill="#000000" d="M29.425 234.15L29.425 232.0875L25.70625 232.0875L25.70625 231.11874L29.628124 225.55624L30.4875 225.55624L30.4875 231.11874L31.64375 231.11874L31.64375 232.0875L30.4875 232.0875L30.4875 234.15L29.425 234.15ZM29.425 231.11874L29.425 227.25937L26.7375 231.11874L29.425 231.11874ZM33.05 229.91562Q33.05 228.38437 33.3625 227.4625Q33.675 226.525 34.284374 226.025Q34.909374 225.525 35.846874 225.525Q36.534374 225.525 37.05 225.80624Q37.58125 226.0875 37.925 226.61874Q38.26875 227.13437 38.45625 227.88437Q38.64375 228.63437 38.64375 229.91562Q38.64375 231.43124 38.33125 232.35312Q38.034374 233.275 37.409374 233.79062Q36.8 234.29062 35.846874 234.29062Q34.6125 234.29062 33.89375 233.4Q33.05 232.3375 33.05 229.91562ZM34.128124 229.91562Q34.128124 232.025 34.628124 232.72812Q35.128124 233.43124 35.846874 233.43124Q36.58125 233.43124 37.065624 232.72812Q37.565624 232.025 37.565624 229.91562Q37.565624 227.79062 37.065624 227.10312Q36.58125 226.4 35.83125 226.4Q35.1125 226.4 34.675 227.00937Q34.128124 227.79062 34.128124 229.91562Z" fill-rule="nonzero"/><path fill="#000000" d="M29.425 131.85L29.425 129.7875L25.70625 129.7875L25.70625 128.81876L29.628124 123.256256L30.4875 123.256256L30.4875 128.81876L31.64375 128.81876L31.64375 129.7875L30.4875 129.7875L30.4875 131.85L29.425 131.85ZM29.425 128.81876L29.425 124.95938L26.7375 128.81876L29.425 128.81876ZM33.05 129.6L34.159374 129.50626Q34.284374 130.31876 34.721874 130.725Q35.175 131.13126 35.815624 131.13126Q36.565624 131.13126 37.096874 130.55313Q37.628124 129.975 37.628124 129.0375Q37.628124 128.13126 37.1125 127.61563Q36.6125 127.08438 35.784374 127.08438Q35.284374 127.08438 34.8625 127.318756Q34.45625 127.55313 34.221874 127.912506L33.2375 127.787506L34.065624 123.381256L38.346874 123.381256L38.346874 124.381256L34.909374 124.381256L34.45625 126.693756Q35.221874 126.14688 36.065624 126.14688Q37.190624 126.14688 37.95625 126.92813Q38.7375 127.70938 38.7375 128.94376Q38.7375 130.1 38.065624 130.95938Q37.2375 131.99063 35.815624 131.99063Q34.64375 131.99063 33.89375 131.33438Q33.159374 130.67813 33.05 129.6Z" fill-rule="nonzero"/><path fill="#000000" d="M26.05 27.3L27.159374 27.20625Q27.284374 28.01875 27.721874 28.425Q28.175 28.83125 28.815624 28.83125Q29.565624 28.83125 30.096874 28.253124Q30.628124 27.675 30.628124 26.7375Q30.628124 25.83125 30.1125 25.315624Q29.6125 24.784374 28.784374 24.784374Q28.284374 24.784374 27.8625 25.01875Q27.45625 25.253124 27.221874 25.6125L26.2375 25.4875L27.065624 21.08125L31.346874 21.08125L31.346874 22.08125L27.909374 22.08125L27.45625 24.39375Q28.221874 23.846874 29.065624 23.846874Q30.190624 23.846874 30.95625 24.628124Q31.7375 25.409374 31.7375 26.64375Q31.7375 27.8 31.065624 28.659374Q30.2375 29.690624 28.815624 29.690624Q27.64375 29.690624 26.89375 29.034374Q26.159374 28.378124 26.05 27.3ZM33.05 25.315624Q33.05 23.784374 33.3625 22.8625Q33.675 21.925 34.284374 21.425Q34.909374 20.925 35.846874 20.925Q36.534374 20.925 37.05 21.20625Q37.58125 21.4875 37.925 22.01875Q38.26875 22.534374 38.45625 23.284374Q38.64375 24.034374 38.64375 25.315624Q38.64375 26.83125 38.33125 27.753124Q38.034374 28.675 37.409374 29.190624Q36.8 29.690624 35.846874 29.690624Q34.6125 29.690624 33.89375 28.8Q33.05 27.7375 33.05 25.315624ZM34.128124 25.315624Q34.128124 27.425 34.628124 28.128124Q35.128124 28.83125 35.846874 28.83125Q36.58125 28.83125 37.065624 28.128124Q37.565624 27.425 37.565624 25.315624Q37.565624 23.190624 37.065624 22.503124Q36.58125 21.8 35.83125 21.8Q35.1125 21.8 34.675 22.409374Q34.128124 23.190624 34.128124 25.315624Z" fill-rule="nonzero"/><path fill="#000000" d="M104.78855 349.45L104.78855 340.85626L105.91355 340.85626L105.91355 349.45L104.78855 349.45ZM107.16355 347.1844L108.22605 347.04376Q108.39793 347.9344 108.83543 348.34064Q109.27293 348.73126 109.89793 348.73126Q110.64793 348.73126 111.16355 348.21564Q111.67918 347.7 111.67918 346.9344Q111.67918 346.21564 111.1948 345.7469Q110.72605 345.2625 109.99168 345.2625Q109.6948 345.2625 109.24168 345.3875L109.36668 344.45Q109.47605 344.46564 109.53855 344.46564Q110.21043 344.46564 110.74168 344.1219Q111.28855 343.7625 111.28855 343.02814Q111.28855 342.45 110.89793 342.075Q110.5073 341.6844 109.8823 341.6844Q109.27293 341.6844 108.85105 342.075Q108.4448 342.46564 108.33543 343.23126L107.27293 343.04376Q107.46043 341.9969 108.14793 341.41876Q108.83543 340.825 109.85105 340.825Q110.55418 340.825 111.14793 341.1375Q111.74168 341.4344 112.05418 341.95Q112.36668 342.46564 112.36668 343.0594Q112.36668 343.60626 112.0698 344.075Q111.77293 344.52814 111.1948 344.79376Q111.9448 344.96564 112.36668 345.52814Q112.78855 346.075 112.78855 346.91876Q112.78855 348.04376 111.96043 348.825Q111.14793 349.60626 109.89793 349.60626Q108.77293 349.60626 108.02293 348.9344Q107.27293 348.2469 107.16355 347.1844ZM114.58543 349.45L114.58543 340.85626L117.55418 340.85626Q118.55418 340.85626 119.08543 340.98126Q119.8198 341.15314 120.33543 341.59064Q121.02293 342.16876 121.35105 343.075Q121.6948 343.96564 121.6948 345.10626Q121.6948 346.09064 121.46043 346.84064Q121.24168 347.59064 120.8823 348.09064Q120.52293 348.59064 120.08543 348.8719Q119.66355 349.15314 119.0698 349.3094Q118.47605 349.45 117.6948 349.45L114.58543 349.45ZM115.72605 348.4344L117.55418 348.4344Q118.41355 348.4344 118.89793 348.27814Q119.3823 348.1219 119.66355 347.825Q120.0698 347.4344 120.28855 346.7469Q120.52293 346.0594 120.52293 345.09064Q120.52293 343.7469 120.0698 343.02814Q119.6323 342.29376 119.0073 342.04376Q118.53855 341.8719 117.53855 341.8719L115.72605 341.8719L115.72605 348.4344Z" fill-rule="nonzero"/><path fill="#000000" d="M185.75365 349.45L185.75365 340.85626L186.9099 340.85626L191.42552 347.60626L191.42552 340.85626L192.51927 340.85626L192.51927 349.45L191.3474 349.45L186.83177 342.7L186.83177 349.45L185.75365 349.45ZM194.23802 346.34064Q194.23802 344.60626 195.19115 343.77814Q195.98802 343.09064 197.14427 343.09064Q198.42552 343.09064 199.23802 343.9344Q200.06615 344.7625 200.06615 346.2469Q200.06615 347.45 199.70677 348.1375Q199.3474 348.825 198.64427 349.21564Q197.95677 349.59064 197.14427 349.59064Q195.8474 349.59064 195.0349 348.7625Q194.23802 347.91876 194.23802 346.34064ZM195.31615 346.34064Q195.31615 347.52814 195.83177 348.1219Q196.36302 348.71564 197.14427 348.71564Q197.94115 348.71564 198.45677 348.1219Q198.9724 347.52814 198.9724 346.3094Q198.9724 345.15314 198.44115 344.5594Q197.92552 343.96564 197.14427 343.96564Q196.36302 343.96564 195.83177 344.5594Q195.31615 345.1375 195.31615 346.34064ZM201.62865 349.45L201.62865 343.23126L202.56615 343.23126L202.56615 344.10626Q203.25365 343.09064 204.55052 343.09064Q205.11302 343.09064 205.58177 343.29376Q206.06615 343.4969 206.30052 343.825Q206.5349 344.15314 206.62865 344.59064Q206.67552 344.8875 206.67552 345.6219L206.67552 349.45L205.62865 349.45L205.62865 345.66876Q205.62865 345.0125 205.50365 344.7Q205.37865 344.3875 205.06615 344.2Q204.75365 343.9969 204.33177 343.9969Q203.6599 343.9969 203.1599 344.4344Q202.67552 344.85626 202.67552 346.04376L202.67552 349.45L201.62865 349.45ZM208.20677 346.8719L208.20677 345.8094L211.45677 345.8094L211.45677 346.8719L208.20677 346.8719ZM212.70677 349.45L212.70677 340.85626L213.8474 340.85626L213.8474 348.4344L218.08177 348.4344L218.08177 349.45L212.70677 349.45ZM219.23802 346.34064Q219.23802 344.60626 220.19115 343.77814Q220.98802 343.09064 222.14427 343.09064Q223.42552 343.09064 224.23802 343.9344Q225.06615 344.7625 225.06615 346.2469Q225.06615 347.45 224.70677 348.1375Q224.3474 348.825 223.64427 349.21564Q222.95677 349.59064 222.14427 349.59064Q220.8474 349.59064 220.0349 348.7625Q219.23802 347.91876 219.23802 346.34064ZM220.31615 346.34064Q220.31615 347.52814 220.83177 348.1219Q221.36302 348.71564 222.14427 348.71564Q222.94115 348.71564 223.45677 348.1219Q223.9724 347.52814 223.9724 346.3094Q223.9724 345.15314 223.44115 344.5594Q222.92552 343.96564 222.14427 343.96564Q221.36302 343.96564 220.83177 344.5594Q220.31615 345.1375 220.31615 346.34064ZM230.69115 347.16876L231.7224 347.3094Q231.55052 348.3719 230.8474 348.98126Q230.14427 349.59064 229.12865 349.59064Q227.8474 349.59064 227.06615 348.7625Q226.30052 347.91876 226.30052 346.35626Q226.30052 345.35626 226.62865 344.60626Q226.9724 343.84064 227.64427 343.46564Q228.33177 343.09064 229.14427 343.09064Q230.14427 343.09064 230.7849 343.60626Q231.44115 344.10626 231.62865 345.0594L230.5974 345.21564Q230.45677 344.59064 230.08177 344.27814Q229.70677 343.95 229.17552 343.95Q228.37865 343.95 227.87865 344.52814Q227.37865 345.09064 227.37865 346.325Q227.37865 347.59064 227.86302 348.15314Q228.3474 348.71564 229.11302 348.71564Q229.73802 348.71564 230.14427 348.34064Q230.56615 347.96564 230.69115 347.16876ZM236.69115 348.6844Q236.0974 349.1844 235.55052 349.3875Q235.01927 349.59064 234.39427 349.59064Q233.36302 349.59064 232.81615 349.09064Q232.26927 348.59064 232.26927 347.8094Q232.26927 347.35626 232.4724 346.98126Q232.67552 346.59064 233.01927 346.3719Q233.36302 346.1375 233.7849 346.02814Q234.08177 345.9344 234.7224 345.85626Q235.98802 345.71564 236.5974 345.4969Q236.5974 345.27814 236.5974 345.23126Q236.5974 344.575 236.30052 344.3094Q235.89427 343.96564 235.0974 343.96564Q234.36302 343.96564 234.00365 344.23126Q233.64427 344.48126 233.4724 345.1375L232.44115 344.9969Q232.58177 344.34064 232.9099 343.9344Q233.23802 343.52814 233.8474 343.3094Q234.45677 343.09064 235.25365 343.09064Q236.05052 343.09064 236.55052 343.27814Q237.05052 343.46564 237.2849 343.7469Q237.51927 344.02814 237.61302 344.46564Q237.6599 344.73126 237.6599 345.4344L237.6599 346.84064Q237.6599 348.3094 237.7224 348.7Q237.80052 349.09064 238.00365 349.45L236.89427 349.45Q236.73802 349.1219 236.69115 348.6844ZM236.5974 346.325Q236.01927 346.5594 234.87865 346.73126Q234.2224 346.825 233.95677 346.95Q233.69115 347.0594 233.5349 347.27814Q233.39427 347.4969 233.39427 347.77814Q233.39427 348.2 233.70677 348.48126Q234.0349 348.7625 234.64427 348.7625Q235.25365 348.7625 235.7224 348.4969Q236.20677 348.23126 236.42552 347.7625Q236.5974 347.40314 236.5974 346.71564L236.5974 346.325ZM239.5974 349.45L239.5974 340.85626L240.6599 340.85626L240.6599 349.45L239.5974 349.45Z" fill-rule="nonzero"/><path fill="#000000" d="M265.92188 349.45L265.92188 340.85626L267.07812 340.85626L271.59375 347.60626L271.59375 340.85626L272.6875 340.85626L272.6875 349.45L271.51562 349.45L267.0 342.7L267.0 349.45L265.92188 349.45ZM274.40625 346.34064Q274.40625 344.60626 275.35938 343.77814Q276.15625 343.09064 277.3125 343.09064Q278.59375 343.09064 279.40625 343.9344Q280.23438 344.7625 280.23438 346.2469Q280.23438 347.45 279.875 348.1375Q279.51562 348.825 278.8125 349.21564Q278.125 349.59064 277.3125 349.59064Q276.01562 349.59064 275.20312 348.7625Q274.40625 347.91876 274.40625 346.34064ZM275.48438 346.34064Q275.48438 347.52814 276.0 348.1219Q276.53125 348.71564 277.3125 348.71564Q278.10938 348.71564 278.625 348.1219Q279.14062 347.52814 279.14062 346.3094Q279.14062 345.15314 278.60938 344.5594Q278.09375 343.96564 277.3125 343.96564Q276.53125 343.96564 276.0 344.5594Q275.48438 345.1375 275.48438 346.34064ZM281.79688 349.45L281.79688 343.23126L282.73438 343.23126L282.73438 344.10626Q283.42188 343.09064 284.71875 343.09064Q285.28125 343.09064 285.75 343.29376Q286.23438 343.4969 286.46875 343.825Q286.70312 344.15314 286.79688 344.59064Q286.84375 344.8875 286.84375 345.6219L286.84375 349.45L285.79688 349.45L285.79688 345.66876Q285.79688 345.0125 285.67188 344.7Q285.54688 344.3875 285.23438 344.2Q284.92188 343.9969 284.5 343.9969Q283.82812 343.9969 283.32812 344.4344Q282.84375 344.85626 282.84375 346.04376L282.84375 349.45L281.79688 349.45ZM288.375 346.8719L288.375 345.8094L291.625 345.8094L291.625 346.8719L288.375 346.8719ZM292.875 349.45L292.875 340.85626L294.01562 340.85626L294.01562 348.4344L298.25 348.4344L298.25 349.45L292.875 349.45ZM299.40625 346.34064Q299.40625 344.60626 300.35938 343.77814Q301.15625 343.09064 302.3125 343.09064Q303.59375 343.09064 304.40625 343.9344Q305.23438 344.7625 305.23438 346.2469Q305.23438 347.45 304.875 348.1375Q304.51562 348.825 303.8125 349.21564Q303.125 349.59064 302.3125 349.59064Q301.01562 349.59064 300.20312 348.7625Q299.40625 347.91876 299.40625 346.34064ZM300.48438 346.34064Q300.48438 347.52814 301.0 348.1219Q301.53125 348.71564 302.3125 348.71564Q303.10938 348.71564 303.625 348.1219Q304.14062 347.52814 304.14062 346.3094Q304.14062 345.15314 303.60938 344.5594Q303.09375 343.96564 302.3125 343.96564Q301.53125 343.96564 301.0 344.5594Q300.48438 345.1375 300.48438 346.34064ZM310.85938 347.16876L311.89062 347.3094Q311.71875 348.3719 311.01562 348.98126Q310.3125 349.59064 309.29688 349.59064Q308.01562 349.59064 307.23438 348.7625Q306.46875 347.91876 306.46875 346.35626Q306.46875 345.35626 306.79688 344.60626Q307.14062 343.84064 307.8125 343.46564Q308.5 343.09064 309.3125 343.09064Q310.3125 343.09064 310.95312 343.60626Q311.60938 344.10626 311.79688 345.0594L310.76562 345.21564Q310.625 344.59064 310.25 344.27814Q309.875 343.95 309.34375 343.95Q308.54688 343.95 308.04688 344.52814Q307.54688 345.09064 307.54688 346.325Q307.54688 347.59064 308.03125 348.15314Q308.51562 348.71564 309.28125 348.71564Q309.90625 348.71564 310.3125 348.34064Q310.73438 347.96564 310.85938 347.16876ZM316.85938 348.6844Q316.26562 349.1844 315.71875 349.3875Q315.1875 349.59064 314.5625 349.59064Q313.53125 349.59064 312.98438 349.09064Q312.4375 348.59064 312.4375 347.8094Q312.4375 347.35626 312.64062 346.98126Q312.84375 346.59064 313.1875 346.3719Q313.53125 346.1375 313.95312 346.02814Q314.25 345.9344 314.89062 345.85626Q316.15625 345.71564 316.76562 345.4969Q316.76562 345.27814 316.76562 345.23126Q316.76562 344.575 316.46875 344.3094Q316.0625 343.96564 315.26562 343.96564Q314.53125 343.96564 314.17188 344.23126Q313.8125 344.48126 313.64062 345.1375L312.60938 344.9969Q312.75 344.34064 313.07812 343.9344Q313.40625 343.52814 314.01562 343.3094Q314.625 343.09064 315.42188 343.09064Q316.21875 343.09064 316.71875 343.27814Q317.21875 343.46564 317.45312 343.7469Q317.6875 344.02814 317.78125 344.46564Q317.82812 344.73126 317.82812 345.4344L317.82812 346.84064Q317.82812 348.3094 317.89062 348.7Q317.96875 349.09064 318.17188 349.45L317.0625 349.45Q316.90625 349.1219 316.85938 348.6844ZM316.76562 346.325Q316.1875 346.5594 315.04688 346.73126Q314.39062 346.825 314.125 346.95Q313.85938 347.0594 313.70312 347.27814Q313.5625 347.4969 313.5625 347.77814Q313.5625 348.2 313.875 348.48126Q314.20312 348.7625 314.8125 348.7625Q315.42188 348.7625 315.89062 348.4969Q316.375 348.23126 316.59375 347.7625Q316.76562 347.40314 316.76562 346.71564L316.76562 346.325ZM319.76562 349.45L319.76562 340.85626L320.82812 340.85626L320.82812 349.45L319.76562 349.45ZM328.0 348.0594L328.0 345.7L325.67188 345.7L325.67188 344.71564L328.0 344.71564L328.0 342.3875L329.0 342.3875L329.0 344.71564L331.34375 344.71564L331.34375 345.7L329.0 345.7L329.0 348.0594L328.0 348.0594ZM339.95312 346.075L339.95312 345.075L343.57812 345.0594L343.57812 348.2469Q342.75 348.91876 341.85938 349.2625Q340.96875 349.59064 340.03125 349.59064Q338.76562 349.59064 337.71875 349.0594Q336.6875 348.5125 336.15625 347.4969Q335.64062 346.46564 335.64062 345.2Q335.64062 343.9344 336.15625 342.85626Q336.6875 341.7625 337.67188 341.2469Q338.65625 340.71564 339.9375 340.71564Q340.875 340.71564 341.625 341.0125Q342.375 341.3094 342.79688 341.85626Q343.23438 342.3875 343.45312 343.2625L342.4375 343.54376Q342.23438 342.8875 341.9375 342.5125Q341.65625 342.1375 341.125 341.91876Q340.59375 341.6844 339.95312 341.6844Q339.17188 341.6844 338.59375 341.91876Q338.03125 342.15314 337.67188 342.54376Q337.32812 342.9344 337.14062 343.40314Q336.8125 344.2 336.8125 345.1219Q336.8125 346.27814 337.20312 347.0594Q337.60938 347.825 338.35938 348.2Q339.10938 348.575 339.96875 348.575Q340.70312 348.575 341.40625 348.29376Q342.10938 347.9969 342.46875 347.6844L342.46875 346.075L339.95312 346.075ZM351.0625 346.4344L352.1875 346.73126Q351.82812 348.1219 350.90625 348.85626Q349.98438 349.59064 348.64062 349.59064Q347.25 349.59064 346.375 349.02814Q345.5 348.46564 345.04688 347.40314Q344.59375 346.325 344.59375 345.09064Q344.59375 343.7469 345.10938 342.7469Q345.625 341.7469 346.5625 341.23126Q347.51562 340.71564 348.65625 340.71564Q349.9375 340.71564 350.8125 341.3719Q351.70312 342.02814 352.04688 343.21564L350.92188 343.48126Q350.625 342.54376 350.04688 342.1219Q349.48438 341.6844 348.625 341.6844Q347.64062 341.6844 346.96875 342.16876Q346.3125 342.6375 346.03125 343.4344Q345.76562 344.23126 345.76562 345.09064Q345.76562 346.1844 346.07812 346.9969Q346.40625 347.8094 347.07812 348.21564Q347.75 348.6219 348.54688 348.6219Q349.5 348.6219 350.15625 348.075Q350.82812 347.52814 351.0625 346.4344ZM353.92188 349.45L353.92188 340.85626L355.07812 340.85626L359.59375 347.60626L359.59375 340.85626L360.6875 340.85626L360.6875 349.45L359.51562 349.45L355.0 342.7L355.0 349.45L353.92188 349.45Z" fill-rule="nonzero"/><path fill="#000000" d="M395.7151 346.6844L396.7776 346.59064Q396.8557 347.2469 397.13696 347.65314Q397.4182 348.0594 397.99634 348.325Q398.5901 348.575 399.32446 348.575Q399.9651 348.575 400.4651 348.3875Q400.9651 348.1844 401.19946 347.85626Q401.44946 347.5125 401.44946 347.1219Q401.44946 346.71564 401.2151 346.41876Q400.9807 346.10626 400.44946 345.90314Q400.0901 345.7625 398.9026 345.48126Q397.7307 345.2 397.26196 344.95Q396.63696 344.6219 396.3401 344.15314Q396.0432 343.66876 396.0432 343.075Q396.0432 342.4344 396.4026 341.8719Q396.7776 341.29376 397.4807 341.0125Q398.19946 340.71564 399.05884 340.71564Q400.01196 340.71564 400.74634 341.02814Q401.4807 341.325 401.87134 341.9344Q402.26196 342.52814 402.2932 343.27814L401.19946 343.35626Q401.1057 342.54376 400.5901 342.1375Q400.0901 341.71564 399.1057 341.71564Q398.07446 341.71564 397.6057 342.09064Q397.13696 342.46564 397.13696 342.9969Q397.13696 343.46564 397.4651 343.7625Q397.7932 344.0594 399.1682 344.3719Q400.55884 344.6844 401.07446 344.91876Q401.82446 345.27814 402.18384 345.8094Q402.5432 346.325 402.5432 347.02814Q402.5432 347.71564 402.1526 348.325Q401.76196 348.91876 401.0276 349.2625Q400.2932 349.59064 399.37134 349.59064Q398.19946 349.59064 397.4026 349.2625Q396.62134 348.91876 396.1682 348.23126Q395.7307 347.54376 395.7151 346.6844ZM403.6682 347.1844L404.7307 347.04376Q404.9026 347.9344 405.3401 348.34064Q405.7776 348.73126 406.4026 348.73126Q407.1526 348.73126 407.6682 348.21564Q408.18384 347.7 408.18384 346.9344Q408.18384 346.21564 407.69946 345.7469Q407.2307 345.2625 406.49634 345.2625Q406.19946 345.2625 405.74634 345.3875L405.87134 344.45Q405.9807 344.46564 406.0432 344.46564Q406.7151 344.46564 407.24634 344.1219Q407.7932 343.7625 407.7932 343.02814Q407.7932 342.45 407.4026 342.075Q407.01196 341.6844 406.38696 341.6844Q405.7776 341.6844 405.3557 342.075Q404.94946 342.46564 404.8401 343.23126L403.7776 343.04376Q403.9651 341.9969 404.6526 341.41876Q405.3401 340.825 406.3557 340.825Q407.05884 340.825 407.6526 341.1375Q408.24634 341.4344 408.55884 341.95Q408.87134 342.46564 408.87134 343.0594Q408.87134 343.60626 408.57446 344.075Q408.2776 344.52814 407.69946 344.79376Q408.44946 344.96564 408.87134 345.52814Q409.2932 346.075 409.2932 346.91876Q409.2932 348.04376 408.4651 348.825Q407.6526 349.60626 406.4026 349.60626Q405.2776 349.60626 404.5276 348.9344Q403.7776 348.2469 403.6682 347.1844ZM411.0901 349.45L411.0901 340.85626L414.05884 340.85626Q415.05884 340.85626 415.5901 340.98126Q416.32446 341.15314 416.8401 341.59064Q417.5276 342.16876 417.8557 343.075Q418.19946 343.96564 418.19946 345.10626Q418.19946 346.09064 417.9651 346.84064Q417.74634 347.59064 417.38696 348.09064Q417.0276 348.59064 416.5901 348.8719Q416.1682 349.15314 415.57446 349.3094Q414.9807 349.45 414.19946 349.45L411.0901 349.45ZM412.2307 348.4344L414.05884 348.4344Q414.9182 348.4344 415.4026 348.27814Q415.88696 348.1219 416.1682 347.825Q416.57446 347.4344 416.7932 346.7469Q417.0276 346.0594 417.0276 345.09064Q417.0276 343.7469 416.57446 343.02814Q416.13696 342.29376 415.51196 342.04376Q415.0432 341.8719 414.0432 341.8719L412.2307 341.8719L412.2307 348.4344ZM419.5432 346.8719L419.5432 345.8094L422.7932 345.8094L422.7932 346.8719L419.5432 346.8719ZM428.12134 346.075L428.12134 345.075L431.74634 345.0594L431.74634 348.2469Q430.9182 348.91876 430.0276 349.2625Q429.13696 349.59064 428.19946 349.59064Q426.93384 349.59064 425.88696 349.0594Q424.8557 348.5125 424.32446 347.4969Q423.80884 346.46564 423.80884 345.2Q423.80884 343.9344 424.32446 342.85626Q424.8557 341.7625 425.8401 341.2469Q426.82446 340.71564 428.1057 340.71564Q429.0432 340.71564 429.7932 341.0125Q430.5432 341.3094 430.9651 341.85626Q431.4026 342.3875 431.62134 343.2625L430.6057 343.54376Q430.4026 342.8875 430.1057 342.5125Q429.82446 342.1375 429.2932 341.91876Q428.76196 341.6844 428.12134 341.6844Q427.3401 341.6844 426.76196 341.91876Q426.19946 342.15314 425.8401 342.54376Q425.49634 342.9344 425.30884 343.40314Q424.9807 344.2 424.9807 345.1219Q424.9807 346.27814 425.37134 347.0594Q425.7776 347.825 426.5276 348.2Q427.2776 348.575 428.13696 348.575Q428.87134 348.575 429.57446 348.29376Q430.2776 347.9969 430.63696 347.6844L430.63696 346.075L428.12134 346.075Z" fill-rule="nonzero"/><path fill="#000000" d="M498.27396 349.45L498.27396 340.85626L502.08646 340.85626Q503.2427 340.85626 503.83646 341.09064Q504.4302 341.325 504.78958 341.91876Q505.14896 342.4969 505.14896 343.2Q505.14896 344.1219 504.5552 344.7469Q503.96146 345.3719 502.72708 345.54376Q503.1802 345.7625 503.41458 345.96564Q503.91458 346.41876 504.35208 347.10626L505.85208 349.45L504.41458 349.45L503.28958 347.66876Q502.78958 346.8875 502.46146 346.48126Q502.14896 346.075 501.88333 345.91876Q501.63333 345.7469 501.3677 345.66876Q501.1802 345.6375 500.7427 345.6375L499.41458 345.6375L499.41458 349.45L498.27396 349.45ZM499.41458 344.65314L501.8677 344.65314Q502.63333 344.65314 503.07083 344.4969Q503.52396 344.325 503.7427 343.98126Q503.97708 343.6219 503.97708 343.2Q503.97708 342.59064 503.52396 342.2Q503.08646 341.8094 502.13333 341.8094L499.41458 341.8094L499.41458 344.65314ZM506.88333 346.6844L507.94583 346.59064Q508.02396 347.2469 508.3052 347.65314Q508.58646 348.0594 509.16458 348.325Q509.75833 348.575 510.4927 348.575Q511.13333 348.575 511.63333 348.3875Q512.1333 348.1844 512.3677 347.85626Q512.6177 347.5125 512.6177 347.1219Q512.6177 346.71564 512.3833 346.41876Q512.1489 346.10626 511.6177 345.90314Q511.25833 345.7625 510.07083 345.48126Q508.89896 345.2 508.4302 344.95Q507.8052 344.6219 507.50833 344.15314Q507.21146 343.66876 507.21146 343.075Q507.21146 342.4344 507.57083 341.8719Q507.94583 341.29376 508.64896 341.0125Q509.3677 340.71564 510.22708 340.71564Q511.1802 340.71564 511.91458 341.02814Q512.6489 341.325 513.03955 341.9344Q513.4302 342.52814 513.4614 343.27814L512.3677 343.35626Q512.2739 342.54376 511.75833 342.1375Q511.25833 341.71564 510.27396 341.71564Q509.2427 341.71564 508.77396 342.09064Q508.3052 342.46564 508.3052 342.9969Q508.3052 343.46564 508.63333 343.7625Q508.96146 344.0594 510.33646 344.3719Q511.72708 344.6844 512.2427 344.91876Q512.9927 345.27814 513.35205 345.8094Q513.7114 346.325 513.7114 347.02814Q513.7114 347.71564 513.3208 348.325Q512.9302 348.91876 512.1958 349.2625Q511.46146 349.59064 510.53958 349.59064Q509.3677 349.59064 508.57083 349.2625Q507.78958 348.91876 507.33646 348.23126Q506.89896 347.54376 506.88333 346.6844ZM517.4458 349.45L517.4458 341.8719L514.6177 341.8719L514.6177 340.85626L521.4302 340.85626L521.4302 341.8719L518.5864 341.8719L518.5864 349.45L517.4458 349.45ZM526.28955 346.075L526.28955 345.075L529.91455 345.0594L529.91455 348.2469Q529.0864 348.91876 528.1958 349.2625Q527.3052 349.59064 526.3677 349.59064Q525.10205 349.59064 524.0552 349.0594Q523.0239 348.5125 522.4927 347.4969Q521.97705 346.46564 521.97705 345.2Q521.97705 343.9344 522.4927 342.85626Q523.0239 341.7625 524.0083 341.2469Q524.9927 340.71564 526.2739 340.71564Q527.2114 340.71564 527.9614 341.0125Q528.7114 341.3094 529.1333 341.85626Q529.5708 342.3875 529.78955 343.2625L528.7739 343.54376Q528.5708 342.8875 528.2739 342.5125Q527.9927 342.1375 527.4614 341.91876Q526.9302 341.6844 526.28955 341.6844Q525.5083 341.6844 524.9302 341.91876Q524.3677 342.15314 524.0083 342.54376Q523.66455 342.9344 523.47705 343.40314Q523.1489 344.2 523.1489 345.1219Q523.1489 346.27814 523.53955 347.0594Q523.9458 347.825 524.6958 348.2Q525.4458 348.575 526.3052 348.575Q527.03955 348.575 527.7427 348.29376Q528.4458 347.9969 528.8052 347.6844L528.8052 346.075L526.28955 346.075Z" fill-rule="nonzero"/></svg>