<?xml version="1.0" encoding="utf-8" standalone="no"?>
<!DOCTYPE svg PUBLIC "-//W3C//DTD SVG 1.1//EN"
  "http://www.w3.org/Graphics/SVG/1.1/DTD/svg11.dtd">
<svg xmlns:xlink="http://www.w3.org/1999/xlink" width="182761.724531pt" height="145554.15625pt" viewBox="0 0 182761.724531 145554.15625" xmlns="http://www.w3.org/2000/svg" version="1.1">
 <metadata>
  <rdf:RDF xmlns:dc="http://purl.org/dc/elements/1.1/" xmlns:cc="http://creativecommons.org/ns#" xmlns:rdf="http://www.w3.org/1999/02/22-rdf-syntax-ns#">
   <cc:Work>
    <dc:type rdf:resource="http://purl.org/dc/dcmitype/StillImage"/>
    <dc:date>2025-01-29T17:56:21.773264</dc:date>
    <dc:format>image/svg+xml</dc:format>
    <dc:creator>
     <cc:Agent>
      <dc:title>Matplotlib v3.10.0, https://matplotlib.org/</dc:title>
     </cc:Agent>
    </dc:creator>
   </cc:Work>
  </rdf:RDF>
 </metadata>
 <defs>
  <style type="text/css">*{stroke-linejoin: round; stroke-linecap: butt}</style>
 </defs>
 <g id="figure_1">
  <g id="patch_1">
   <path d="M 0 145554.15625 
L 182761.724531 145554.15625 
L 182761.724531 0 
L 0 0 
z
" style="fill: #ffffff"/>
  </g>
  <g id="axes_1">
   <g id="patch_2">
    <path d="M 27907.2 48526.95625 
L 61387.2 48526.95625 
L 61387.2 20806.95625 
L 27907.2 20806.95625 
z
" clip-path="url(#p28ad4e1748)" style="fill: #ffffff; stroke: #d1d5db; stroke-width: 2; stroke-linejoin: miter"/>
   </g>
   <g id="patch_3">
    <path d="M 94867.2 48526.95625 
L 128347.2 48526.95625 
L 128347.2 20806.95625 
L 94867.2 20806.95625 
z
" clip-path="url(#p28ad4e1748)" style="fill: #ffffff; stroke: #d1d5db; stroke-width: 2; stroke-linejoin: miter"/>
   </g>
   <g id="patch_4">
    <path d="M 161827.2 48526.95625 
L 195307.2 48526.95625 
L 195307.2 20806.95625 
L 161827.2 20806.95625 
z
" clip-path="url(#p28ad4e1748)" style="fill: #ffffff; stroke: #d1d5db; stroke-width: 2; stroke-linejoin: miter"/>
   </g>
   <g id="patch_5">
    <path d="M 27907.2 90106.95625 
L 61387.2 90106.95625 
L 61387.2 62386.95625 
L 27907.2 62386.95625 
z
" clip-path="url(#p28ad4e1748)" style="fill: #ffffff; stroke: #d1d5db; stroke-width: 2; stroke-linejoin: miter"/>
   </g>
   <g id="patch_6">
    <path d="M 94867.2 90106.95625 
L 128347.2 90106.95625 
L 128347.2 62386.95625 
L 94867.2 62386.95625 
z
" clip-path="url(#p28ad4e1748)" style="fill: #ffffff; stroke: #d1d5db; stroke-width: 2; stroke-linejoin: miter"/>
   </g>
   <g id="patch_7">
    <path d="M 161827.2 90106.95625 
L 195307.2 90106.95625 
L 195307.2 62386.95625 
L 161827.2 62386.95625 
z
" clip-path="url(#p28ad4e1748)" style="fill: #ffffff; stroke: #d1d5db; stroke-width: 2; stroke-linejoin: miter"/>
   </g>
   <g id="patch_8">
    <path d="M 27907.2 131686.95625 
L 61387.2 131686.95625 
L 61387.2 103966.95625 
L 27907.2 103966.95625 
z
" clip-path="url(#p28ad4e1748)" style="fill: #ffffff; stroke: #d1d5db; stroke-width: 2; stroke-linejoin: miter"/>
   </g>
   <g id="patch_9">
    <path d="M 94867.2 131686.95625 
L 128347.2 131686.95625 
L 128347.2 103966.95625 
L 94867.2 103966.95625 
z
" clip-path="url(#p28ad4e1748)" style="fill: #ffffff; stroke: #d1d5db; stroke-width: 2; stroke-linejoin: miter"/>
   </g>
   <g id="patch_10">
    <path d="M 161827.2 131686.95625 
L 195307.2 131686.95625 
L 195307.2 103966.95625 
L 161827.2 103966.95625 
z
" clip-path="url(#p28ad4e1748)" style="fill: #ffffff; stroke: #d1d5db; stroke-width: 2; stroke-linejoin: miter"/>
   </g>
   <g id="patch_11">
    <path d="M 39346.2 28083.45625 
L 41578.2 28083.45625 
L 41578.2 25311.45625 
L 39346.2 25311.45625 
z
" clip-path="url(#p28ad4e1748)" style="fill: #fca5a5; stroke: #000000; stroke-linejoin: miter"/>
   </g>
   <g id="patch_12">
    <path d="M 42136.2 28083.45625 
L 44368.2 28083.45625 
L 44368.2 25311.45625 
L 42136.2 25311.45625 
z
" clip-path="url(#p28ad4e1748)" style="fill: #86efac; stroke: #000000; stroke-linejoin: miter"/>
   </g>
   <g id="patch_13">
    <path d="M 44926.2 28083.45625 
L 47158.2 28083.45625 
L 47158.2 25311.45625 
L 44926.2 25311.45625 
z
" clip-path="url(#p28ad4e1748)" style="fill: #93c5fd; stroke: #000000; stroke-linejoin: miter"/>
   </g>
   <g id="patch_14">
    <path d="M 47716.2 28083.45625 
L 49948.2 28083.45625 
L 49948.2 25311.45625 
L 47716.2 25311.45625 
z
" clip-path="url(#p28ad4e1748)" style="fill: #fde047; stroke: #000000; stroke-linejoin: miter"/>
   </g>
   <g id="patch_15">
    <path d="M 39346.2 31548.45625 
L 41578.2 31548.45625 
L 41578.2 28776.45625 
L 39346.2 28776.45625 
z
" clip-path="url(#p28ad4e1748)" style="fill: #c4b5fd; stroke: #000000; stroke-linejoin: miter"/>
   </g>
   <g id="patch_16">
    <path d="M 42136.2 31548.45625 
L 44368.2 31548.45625 
L 44368.2 28776.45625 
L 42136.2 28776.45625 
z
" clip-path="url(#p28ad4e1748)" style="fill: #fbcfe8; stroke: #000000; stroke-linejoin: miter"/>
   </g>
   <g id="patch_17">
    <path d="M 44926.2 31548.45625 
L 47158.2 31548.45625 
L 47158.2 28776.45625 
L 44926.2 28776.45625 
z
" clip-path="url(#p28ad4e1748)" style="fill: #fdba74; stroke: #000000; stroke-linejoin: miter"/>
   </g>
   <g id="patch_18">
    <path d="M 47716.2 31548.45625 
L 49948.2 31548.45625 
L 49948.2 28776.45625 
L 47716.2 28776.45625 
z
" clip-path="url(#p28ad4e1748)" style="fill: #a7f3d0; stroke: #000000; stroke-linejoin: miter"/>
   </g>
   <g id="patch_19">
    <path d="M 39346.2 35013.45625 
L 41578.2 35013.45625 
L 41578.2 32241.45625 
L 39346.2 32241.45625 
z
" clip-path="url(#p28ad4e1748)" style="fill: #fca5a5; stroke: #000000; stroke-linejoin: miter"/>
   </g>
   <g id="patch_20">
    <path d="M 42136.2 35013.45625 
L 44368.2 35013.45625 
L 44368.2 32241.45625 
L 42136.2 32241.45625 
z
" clip-path="url(#p28ad4e1748)" style="fill: #86efac; stroke: #000000; stroke-linejoin: miter"/>
   </g>
   <g id="patch_21">
    <path d="M 44926.2 35013.45625 
L 47158.2 35013.45625 
L 47158.2 32241.45625 
L 44926.2 32241.45625 
z
" clip-path="url(#p28ad4e1748)" style="fill: #93c5fd; stroke: #000000; stroke-linejoin: miter"/>
   </g>
   <g id="patch_22">
    <path d="M 47716.2 35013.45625 
L 49948.2 35013.45625 
L 49948.2 32241.45625 
L 47716.2 32241.45625 
z
" clip-path="url(#p28ad4e1748)" style="fill: #fde047; stroke: #000000; stroke-linejoin: miter"/>
   </g>
   <g id="patch_23">
    <path d="M 39346.2 38478.45625 
L 41578.2 38478.45625 
L 41578.2 35706.45625 
L 39346.2 35706.45625 
z
" clip-path="url(#p28ad4e1748)" style="fill: #c4b5fd; stroke: #000000; stroke-linejoin: miter"/>
   </g>
   <g id="patch_24">
    <path d="M 42136.2 38478.45625 
L 44368.2 38478.45625 
L 44368.2 35706.45625 
L 42136.2 35706.45625 
z
" clip-path="url(#p28ad4e1748)" style="fill: #fbcfe8; stroke: #000000; stroke-linejoin: miter"/>
   </g>
   <g id="patch_25">
    <path d="M 44926.2 38478.45625 
L 47158.2 38478.45625 
L 47158.2 35706.45625 
L 44926.2 35706.45625 
z
" clip-path="url(#p28ad4e1748)" style="fill: #fdba74; stroke: #000000; stroke-linejoin: miter"/>
   </g>
   <g id="patch_26">
    <path d="M 47716.2 38478.45625 
L 49948.2 38478.45625 
L 49948.2 35706.45625 
L 47716.2 35706.45625 
z
" clip-path="url(#p28ad4e1748)" style="fill: #a7f3d0; stroke: #000000; stroke-linejoin: miter"/>
   </g>
   <g id="patch_27">
    <path d="M 173266.2 28083.45625 
L 175498.2 28083.45625 
L 175498.2 25311.45625 
L 173266.2 25311.45625 
z
" clip-path="url(#p28ad4e1748)" style="fill: #9ca3af; stroke: #000000; stroke-linejoin: miter"/>
   </g>
   <g id="patch_28">
    <path d="M 176056.2 28083.45625 
L 178288.2 28083.45625 
L 178288.2 25311.45625 
L 176056.2 25311.45625 
z
" clip-path="url(#p28ad4e1748)" style="fill: #9ca3af; stroke: #000000; stroke-linejoin: miter"/>
   </g>
   <g id="patch_29">
    <path d="M 178846.2 28083.45625 
L 181078.2 28083.45625 
L 181078.2 25311.45625 
L 178846.2 25311.45625 
z
" clip-path="url(#p28ad4e1748)" style="fill: #9ca3af; stroke: #000000; stroke-linejoin: miter"/>
   </g>
   <g id="patch_30">
    <path d="M 181636.2 28083.45625 
L 183868.2 28083.45625 
L 183868.2 25311.45625 
L 181636.2 25311.45625 
z
" clip-path="url(#p28ad4e1748)" style="fill: #9ca3af; stroke: #000000; stroke-linejoin: miter"/>
   </g>
   <g id="patch_31">
    <path d="M 173266.2 31548.45625 
L 175498.2 31548.45625 
L 175498.2 28776.45625 
L 173266.2 28776.45625 
z
" clip-path="url(#p28ad4e1748)" style="fill: #9ca3af; stroke: #000000; stroke-linejoin: miter"/>
   </g>
   <g id="patch_32">
    <path d="M 176056.2 31548.45625 
L 178288.2 31548.45625 
L 178288.2 28776.45625 
L 176056.2 28776.45625 
z
" clip-path="url(#p28ad4e1748)" style="fill: #9ca3af; stroke: #000000; stroke-linejoin: miter"/>
   </g>
   <g id="patch_33">
    <path d="M 178846.2 31548.45625 
L 181078.2 31548.45625 
L 181078.2 28776.45625 
L 178846.2 28776.45625 
z
" clip-path="url(#p28ad4e1748)" style="fill: #9ca3af; stroke: #000000; stroke-linejoin: miter"/>
   </g>
   <g id="patch_34">
    <path d="M 181636.2 31548.45625 
L 183868.2 31548.45625 
L 183868.2 28776.45625 
L 181636.2 28776.45625 
z
" clip-path="url(#p28ad4e1748)" style="fill: #9ca3af; stroke: #000000; stroke-linejoin: miter"/>
   </g>
   <g id="patch_35">
    <path d="M 173266.2 35013.45625 
L 175498.2 35013.45625 
L 175498.2 32241.45625 
L 173266.2 32241.45625 
z
" clip-path="url(#p28ad4e1748)" style="fill: #9ca3af; stroke: #000000; stroke-linejoin: miter"/>
   </g>
   <g id="patch_36">
    <path d="M 176056.2 35013.45625 
L 178288.2 35013.45625 
L 178288.2 32241.45625 
L 176056.2 32241.45625 
z
" clip-path="url(#p28ad4e1748)" style="fill: #9ca3af; stroke: #000000; stroke-linejoin: miter"/>
   </g>
   <g id="patch_37">
    <path d="M 178846.2 35013.45625 
L 181078.2 35013.45625 
L 181078.2 32241.45625 
L 178846.2 32241.45625 
z
" clip-path="url(#p28ad4e1748)" style="fill: #9ca3af; stroke: #000000; stroke-linejoin: miter"/>
   </g>
   <g id="patch_38">
    <path d="M 181636.2 35013.45625 
L 183868.2 35013.45625 
L 183868.2 32241.45625 
L 181636.2 32241.45625 
z
" clip-path="url(#p28ad4e1748)" style="fill: #9ca3af; stroke: #000000; stroke-linejoin: miter"/>
   </g>
   <g id="patch_39">
    <path d="M 173266.2 38478.45625 
L 175498.2 38478.45625 
L 175498.2 35706.45625 
L 173266.2 35706.45625 
z
" clip-path="url(#p28ad4e1748)" style="fill: #9ca3af; stroke: #000000; stroke-linejoin: miter"/>
   </g>
   <g id="patch_40">
    <path d="M 176056.2 38478.45625 
L 178288.2 38478.45625 
L 178288.2 35706.45625 
L 176056.2 35706.45625 
z
" clip-path="url(#p28ad4e1748)" style="fill: #9ca3af; stroke: #000000; stroke-linejoin: miter"/>
   </g>
   <g id="patch_41">
    <path d="M 178846.2 38478.45625 
L 181078.2 38478.45625 
L 181078.2 35706.45625 
L 178846.2 35706.45625 
z
" clip-path="url(#p28ad4e1748)" style="fill: #9ca3af; stroke: #000000; stroke-linejoin: miter"/>
   </g>
   <g id="patch_42">
    <path d="M 181636.2 38478.45625 
L 183868.2 38478.45625 
L 183868.2 35706.45625 
L 181636.2 35706.45625 
z
" clip-path="url(#p28ad4e1748)" style="fill: #9ca3af; stroke: #000000; stroke-linejoin: miter"/>
   </g>
   <g id="patch_43">
    <path d="M 39346.2 69663.45625 
L 41578.2 69663.45625 
L 41578.2 66891.45625 
L 39346.2 66891.45625 
z
" clip-path="url(#p28ad4e1748)" style="fill: #9ca3af; stroke: #000000; stroke-linejoin: miter"/>
   </g>
   <g id="patch_44">
    <path d="M 42136.2 69663.45625 
L 44368.2 69663.45625 
L 44368.2 66891.45625 
L 42136.2 66891.45625 
z
" clip-path="url(#p28ad4e1748)" style="fill: #9ca3af; stroke: #000000; stroke-linejoin: miter"/>
   </g>
   <g id="patch_45">
    <path d="M 44926.2 69663.45625 
L 47158.2 69663.45625 
L 47158.2 66891.45625 
L 44926.2 66891.45625 
z
" clip-path="url(#p28ad4e1748)" style="fill: #9ca3af; stroke: #000000; stroke-linejoin: miter"/>
   </g>
   <g id="patch_46">
    <path d="M 47716.2 69663.45625 
L 49948.2 69663.45625 
L 49948.2 66891.45625 
L 47716.2 66891.45625 
z
" clip-path="url(#p28ad4e1748)" style="fill: #9ca3af; stroke: #000000; stroke-linejoin: miter"/>
   </g>
   <g id="patch_47">
    <path d="M 39346.2 73128.45625 
L 41578.2 73128.45625 
L 41578.2 70356.45625 
L 39346.2 70356.45625 
z
" clip-path="url(#p28ad4e1748)" style="fill: #9ca3af; stroke: #000000; stroke-linejoin: miter"/>
   </g>
   <g id="patch_48">
    <path d="M 42136.2 73128.45625 
L 44368.2 73128.45625 
L 44368.2 70356.45625 
L 42136.2 70356.45625 
z
" clip-path="url(#p28ad4e1748)" style="fill: #9ca3af; stroke: #000000; stroke-linejoin: miter"/>
   </g>
   <g id="patch_49">
    <path d="M 44926.2 73128.45625 
L 47158.2 73128.45625 
L 47158.2 70356.45625 
L 44926.2 70356.45625 
z
" clip-path="url(#p28ad4e1748)" style="fill: #9ca3af; stroke: #000000; stroke-linejoin: miter"/>
   </g>
   <g id="patch_50">
    <path d="M 47716.2 73128.45625 
L 49948.2 73128.45625 
L 49948.2 70356.45625 
L 47716.2 70356.45625 
z
" clip-path="url(#p28ad4e1748)" style="fill: #9ca3af; stroke: #000000; stroke-linejoin: miter"/>
   </g>
   <g id="patch_51">
    <path d="M 39346.2 76593.45625 
L 41578.2 76593.45625 
L 41578.2 73821.45625 
L 39346.2 73821.45625 
z
" clip-path="url(#p28ad4e1748)" style="fill: #9ca3af; stroke: #000000; stroke-linejoin: miter"/>
   </g>
   <g id="patch_52">
    <path d="M 42136.2 76593.45625 
L 44368.2 76593.45625 
L 44368.2 73821.45625 
L 42136.2 73821.45625 
z
" clip-path="url(#p28ad4e1748)" style="fill: #9ca3af; stroke: #000000; stroke-linejoin: miter"/>
   </g>
   <g id="patch_53">
    <path d="M 44926.2 76593.45625 
L 47158.2 76593.45625 
L 47158.2 73821.45625 
L 44926.2 73821.45625 
z
" clip-path="url(#p28ad4e1748)" style="fill: #9ca3af; stroke: #000000; stroke-linejoin: miter"/>
   </g>
   <g id="patch_54">
    <path d="M 47716.2 76593.45625 
L 49948.2 76593.45625 
L 49948.2 73821.45625 
L 47716.2 73821.45625 
z
" clip-path="url(#p28ad4e1748)" style="fill: #9ca3af; stroke: #000000; stroke-linejoin: miter"/>
   </g>
   <g id="patch_55">
    <path d="M 39346.2 80058.45625 
L 41578.2 80058.45625 
L 41578.2 77286.45625 
L 39346.2 77286.45625 
z
" clip-path="url(#p28ad4e1748)" style="fill: #9ca3af; stroke: #000000; stroke-linejoin: miter"/>
   </g>
   <g id="patch_56">
    <path d="M 42136.2 80058.45625 
L 44368.2 80058.45625 
L 44368.2 77286.45625 
L 42136.2 77286.45625 
z
" clip-path="url(#p28ad4e1748)" style="fill: #9ca3af; stroke: #000000; stroke-linejoin: miter"/>
   </g>
   <g id="patch_57">
    <path d="M 44926.2 80058.45625 
L 47158.2 80058.45625 
L 47158.2 77286.45625 
L 44926.2 77286.45625 
z
" clip-path="url(#p28ad4e1748)" style="fill: #9ca3af; stroke: #000000; stroke-linejoin: miter"/>
   </g>
   <g id="patch_58">
    <path d="M 47716.2 80058.45625 
L 49948.2 80058.45625 
L 49948.2 77286.45625 
L 47716.2 77286.45625 
z
" clip-path="url(#p28ad4e1748)" style="fill: #9ca3af; stroke: #000000; stroke-linejoin: miter"/>
   </g>
   <g id="patch_59">
    <path d="M 173266.2 69663.45625 
L 175498.2 69663.45625 
L 175498.2 66891.45625 
L 173266.2 66891.45625 
z
" clip-path="url(#p28ad4e1748)" style="stroke: #000000; stroke-linejoin: miter"/>
   </g>
   <g id="patch_60">
    <path d="M 176056.2 69663.45625 
L 178288.2 69663.45625 
L 178288.2 66891.45625 
L 176056.2 66891.45625 
z
" clip-path="url(#p28ad4e1748)" style="fill: #ffffff; stroke: #000000; stroke-linejoin: miter"/>
   </g>
   <g id="patch_61">
    <path d="M 178846.2 69663.45625 
L 181078.2 69663.45625 
L 181078.2 66891.45625 
L 178846.2 66891.45625 
z
" clip-path="url(#p28ad4e1748)" style="stroke: #000000; stroke-linejoin: miter"/>
   </g>
   <g id="patch_62">
    <path d="M 181636.2 69663.45625 
L 183868.2 69663.45625 
L 183868.2 66891.45625 
L 181636.2 66891.45625 
z
" clip-path="url(#p28ad4e1748)" style="fill: #ffffff; stroke: #000000; stroke-linejoin: miter"/>
   </g>
   <g id="patch_63">
    <path d="M 173266.2 73128.45625 
L 175498.2 73128.45625 
L 175498.2 70356.45625 
L 173266.2 70356.45625 
z
" clip-path="url(#p28ad4e1748)" style="stroke: #000000; stroke-linejoin: miter"/>
   </g>
   <g id="patch_64">
    <path d="M 176056.2 73128.45625 
L 178288.2 73128.45625 
L 178288.2 70356.45625 
L 176056.2 70356.45625 
z
" clip-path="url(#p28ad4e1748)" style="fill: #ffffff; stroke: #000000; stroke-linejoin: miter"/>
   </g>
   <g id="patch_65">
    <path d="M 178846.2 73128.45625 
L 181078.2 73128.45625 
L 181078.2 70356.45625 
L 178846.2 70356.45625 
z
" clip-path="url(#p28ad4e1748)" style="stroke: #000000; stroke-linejoin: miter"/>
   </g>
   <g id="patch_66">
    <path d="M 181636.2 73128.45625 
L 183868.2 73128.45625 
L 183868.2 70356.45625 
L 181636.2 70356.45625 
z
" clip-path="url(#p28ad4e1748)" style="fill: #ffffff; stroke: #000000; stroke-linejoin: miter"/>
   </g>
   <g id="patch_67">
    <path d="M 173266.2 76593.45625 
L 175498.2 76593.45625 
L 175498.2 73821.45625 
L 173266.2 73821.45625 
z
" clip-path="url(#p28ad4e1748)" style="stroke: #000000; stroke-linejoin: miter"/>
   </g>
   <g id="patch_68">
    <path d="M 176056.2 76593.45625 
L 178288.2 76593.45625 
L 178288.2 73821.45625 
L 176056.2 73821.45625 
z
" clip-path="url(#p28ad4e1748)" style="fill: #ffffff; stroke: #000000; stroke-linejoin: miter"/>
   </g>
   <g id="patch_69">
    <path d="M 178846.2 76593.45625 
L 181078.2 76593.45625 
L 181078.2 73821.45625 
L 178846.2 73821.45625 
z
" clip-path="url(#p28ad4e1748)" style="stroke: #000000; stroke-linejoin: miter"/>
   </g>
   <g id="patch_70">
    <path d="M 181636.2 76593.45625 
L 183868.2 76593.45625 
L 183868.2 73821.45625 
L 181636.2 73821.45625 
z
" clip-path="url(#p28ad4e1748)" style="fill: #ffffff; stroke: #000000; stroke-linejoin: miter"/>
   </g>
   <g id="patch_71">
    <path d="M 173266.2 80058.45625 
L 175498.2 80058.45625 
L 175498.2 77286.45625 
L 173266.2 77286.45625 
z
" clip-path="url(#p28ad4e1748)" style="stroke: #000000; stroke-linejoin: miter"/>
   </g>
   <g id="patch_72">
    <path d="M 176056.2 80058.45625 
L 178288.2 80058.45625 
L 178288.2 77286.45625 
L 176056.2 77286.45625 
z
" clip-path="url(#p28ad4e1748)" style="fill: #ffffff; stroke: #000000; stroke-linejoin: miter"/>
   </g>
   <g id="patch_73">
    <path d="M 178846.2 80058.45625 
L 181078.2 80058.45625 
L 181078.2 77286.45625 
L 178846.2 77286.45625 
z
" clip-path="url(#p28ad4e1748)" style="stroke: #000000; stroke-linejoin: miter"/>
   </g>
   <g id="patch_74">
    <path d="M 181636.2 80058.45625 
L 183868.2 80058.45625 
L 183868.2 77286.45625 
L 181636.2 77286.45625 
z
" clip-path="url(#p28ad4e1748)" style="fill: #ffffff; stroke: #000000; stroke-linejoin: miter"/>
   </g>
   <g id="patch_75">
    <path d="M 39346.2 111243.45625 
L 41578.2 111243.45625 
L 41578.2 108471.45625 
L 39346.2 108471.45625 
z
" clip-path="url(#p28ad4e1748)" style="fill: #fca5a5; stroke: #000000; stroke-linejoin: miter"/>
   </g>
   <g id="patch_76">
    <path d="M 42136.2 111243.45625 
L 44368.2 111243.45625 
L 44368.2 108471.45625 
L 42136.2 108471.45625 
z
" clip-path="url(#p28ad4e1748)" style="fill: #86efac; stroke: #000000; stroke-linejoin: miter"/>
   </g>
   <g id="patch_77">
    <path d="M 44926.2 111243.45625 
L 47158.2 111243.45625 
L 47158.2 108471.45625 
L 44926.2 108471.45625 
z
" clip-path="url(#p28ad4e1748)" style="fill: #93c5fd; stroke: #000000; stroke-linejoin: miter"/>
   </g>
   <g id="patch_78">
    <path d="M 47716.2 111243.45625 
L 49948.2 111243.45625 
L 49948.2 108471.45625 
L 47716.2 108471.45625 
z
" clip-path="url(#p28ad4e1748)" style="fill: #fde047; stroke: #000000; stroke-linejoin: miter"/>
   </g>
   <g id="patch_79">
    <path d="M 39346.2 114708.45625 
L 41578.2 114708.45625 
L 41578.2 111936.45625 
L 39346.2 111936.45625 
z
" clip-path="url(#p28ad4e1748)" style="fill: #c4b5fd; stroke: #000000; stroke-linejoin: miter"/>
   </g>
   <g id="patch_80">
    <path d="M 42136.2 114708.45625 
L 44368.2 114708.45625 
L 44368.2 111936.45625 
L 42136.2 111936.45625 
z
" clip-path="url(#p28ad4e1748)" style="fill: #fbcfe8; stroke: #000000; stroke-linejoin: miter"/>
   </g>
   <g id="patch_81">
    <path d="M 44926.2 114708.45625 
L 47158.2 114708.45625 
L 47158.2 111936.45625 
L 44926.2 111936.45625 
z
" clip-path="url(#p28ad4e1748)" style="fill: #fdba74; stroke: #000000; stroke-linejoin: miter"/>
   </g>
   <g id="patch_82">
    <path d="M 47716.2 114708.45625 
L 49948.2 114708.45625 
L 49948.2 111936.45625 
L 47716.2 111936.45625 
z
" clip-path="url(#p28ad4e1748)" style="fill: #a7f3d0; stroke: #000000; stroke-linejoin: miter"/>
   </g>
   <g id="patch_83">
    <path d="M 39346.2 118173.45625 
L 41578.2 118173.45625 
L 41578.2 115401.45625 
L 39346.2 115401.45625 
z
" clip-path="url(#p28ad4e1748)" style="fill: #fca5a5; stroke: #000000; stroke-linejoin: miter"/>
   </g>
   <g id="patch_84">
    <path d="M 42136.2 118173.45625 
L 44368.2 118173.45625 
L 44368.2 115401.45625 
L 42136.2 115401.45625 
z
" clip-path="url(#p28ad4e1748)" style="fill: #86efac; stroke: #000000; stroke-linejoin: miter"/>
   </g>
   <g id="patch_85">
    <path d="M 44926.2 118173.45625 
L 47158.2 118173.45625 
L 47158.2 115401.45625 
L 44926.2 115401.45625 
z
" clip-path="url(#p28ad4e1748)" style="fill: #93c5fd; stroke: #000000; stroke-linejoin: miter"/>
   </g>
   <g id="patch_86">
    <path d="M 47716.2 118173.45625 
L 49948.2 118173.45625 
L 49948.2 115401.45625 
L 47716.2 115401.45625 
z
" clip-path="url(#p28ad4e1748)" style="fill: #fde047; stroke: #000000; stroke-linejoin: miter"/>
   </g>
   <g id="patch_87">
    <path d="M 39346.2 121638.45625 
L 41578.2 121638.45625 
L 41578.2 118866.45625 
L 39346.2 118866.45625 
z
" clip-path="url(#p28ad4e1748)" style="fill: #c4b5fd; stroke: #000000; stroke-linejoin: miter"/>
   </g>
   <g id="patch_88">
    <path d="M 42136.2 121638.45625 
L 44368.2 121638.45625 
L 44368.2 118866.45625 
L 42136.2 118866.45625 
z
" clip-path="url(#p28ad4e1748)" style="fill: #fbcfe8; stroke: #000000; stroke-linejoin: miter"/>
   </g>
   <g id="patch_89">
    <path d="M 44926.2 121638.45625 
L 47158.2 121638.45625 
L 47158.2 118866.45625 
L 44926.2 118866.45625 
z
" clip-path="url(#p28ad4e1748)" style="fill: #fdba74; stroke: #000000; stroke-linejoin: miter"/>
   </g>
   <g id="patch_90">
    <path d="M 47716.2 121638.45625 
L 49948.2 121638.45625 
L 49948.2 118866.45625 
L 47716.2 118866.45625 
z
" clip-path="url(#p28ad4e1748)" style="fill: #a7f3d0; stroke: #000000; stroke-linejoin: miter"/>
   </g>
   <g id="patch_91">
    <path d="M 173266.2 111243.45625 
L 175498.2 111243.45625 
L 175498.2 108471.45625 
L 173266.2 108471.45625 
z
" clip-path="url(#p28ad4e1748)" style="stroke: #000000; stroke-linejoin: miter"/>
   </g>
   <g id="patch_92">
    <path d="M 176056.2 111243.45625 
L 178288.2 111243.45625 
L 178288.2 108471.45625 
L 176056.2 108471.45625 
z
" clip-path="url(#p28ad4e1748)" style="fill: #ffffff; stroke: #000000; stroke-linejoin: miter"/>
   </g>
   <g id="patch_93">
    <path d="M 178846.2 111243.45625 
L 181078.2 111243.45625 
L 181078.2 108471.45625 
L 178846.2 108471.45625 
z
" clip-path="url(#p28ad4e1748)" style="stroke: #000000; stroke-linejoin: miter"/>
   </g>
   <g id="patch_94">
    <path d="M 181636.2 111243.45625 
L 183868.2 111243.45625 
L 183868.2 108471.45625 
L 181636.2 108471.45625 
z
" clip-path="url(#p28ad4e1748)" style="fill: #ffffff; stroke: #000000; stroke-linejoin: miter"/>
   </g>
   <g id="patch_95">
    <path d="M 173266.2 114708.45625 
L 175498.2 114708.45625 
L 175498.2 111936.45625 
L 173266.2 111936.45625 
z
" clip-path="url(#p28ad4e1748)" style="stroke: #000000; stroke-linejoin: miter"/>
   </g>
   <g id="patch_96">
    <path d="M 176056.2 114708.45625 
L 178288.2 114708.45625 
L 178288.2 111936.45625 
L 176056.2 111936.45625 
z
" clip-path="url(#p28ad4e1748)" style="fill: #ffffff; stroke: #000000; stroke-linejoin: miter"/>
   </g>
   <g id="patch_97">
    <path d="M 178846.2 114708.45625 
L 181078.2 114708.45625 
L 181078.2 111936.45625 
L 178846.2 111936.45625 
z
" clip-path="url(#p28ad4e1748)" style="stroke: #000000; stroke-linejoin: miter"/>
   </g>
   <g id="patch_98">
    <path d="M 181636.2 114708.45625 
L 183868.2 114708.45625 
L 183868.2 111936.45625 
L 181636.2 111936.45625 
z
" clip-path="url(#p28ad4e1748)" style="fill: #ffffff; stroke: #000000; stroke-linejoin: miter"/>
   </g>
   <g id="patch_99">
    <path d="M 173266.2 118173.45625 
L 175498.2 118173.45625 
L 175498.2 115401.45625 
L 173266.2 115401.45625 
z
" clip-path="url(#p28ad4e1748)" style="stroke: #000000; stroke-linejoin: miter"/>
   </g>
   <g id="patch_100">
    <path d="M 176056.2 118173.45625 
L 178288.2 118173.45625 
L 178288.2 115401.45625 
L 176056.2 115401.45625 
z
" clip-path="url(#p28ad4e1748)" style="fill: #ffffff; stroke: #000000; stroke-linejoin: miter"/>
   </g>
   <g id="patch_101">
    <path d="M 178846.2 118173.45625 
L 181078.2 118173.45625 
L 181078.2 115401.45625 
L 178846.2 115401.45625 
z
" clip-path="url(#p28ad4e1748)" style="stroke: #000000; stroke-linejoin: miter"/>
   </g>
   <g id="patch_102">
    <path d="M 181636.2 118173.45625 
L 183868.2 118173.45625 
L 183868.2 115401.45625 
L 181636.2 115401.45625 
z
" clip-path="url(#p28ad4e1748)" style="fill: #ffffff; stroke: #000000; stroke-linejoin: miter"/>
   </g>
   <g id="patch_103">
    <path d="M 173266.2 121638.45625 
L 175498.2 121638.45625 
L 175498.2 118866.45625 
L 173266.2 118866.45625 
z
" clip-path="url(#p28ad4e1748)" style="stroke: #000000; stroke-linejoin: miter"/>
   </g>
   <g id="patch_104">
    <path d="M 176056.2 121638.45625 
L 178288.2 121638.45625 
L 178288.2 118866.45625 
L 176056.2 118866.45625 
z
" clip-path="url(#p28ad4e1748)" style="fill: #ffffff; stroke: #000000; stroke-linejoin: miter"/>
   </g>
   <g id="patch_105">
    <path d="M 178846.2 121638.45625 
L 181078.2 121638.45625 
L 181078.2 118866.45625 
L 178846.2 118866.45625 
z
" clip-path="url(#p28ad4e1748)" style="stroke: #000000; stroke-linejoin: miter"/>
   </g>
   <g id="patch_106">
    <path d="M 181636.2 121638.45625 
L 183868.2 121638.45625 
L 183868.2 118866.45625 
L 181636.2 118866.45625 
z
" clip-path="url(#p28ad4e1748)" style="fill: #ffffff; stroke: #000000; stroke-linejoin: miter"/>
   </g>
   <g id="text_1">
    <!-- Input Image -->
    <g transform="translate(44606.27625 22201.980625) scale(0.12 -0.12)">
     <defs>
      <path id="DejaVuSans-Bold-49" d="M 588 4666 
L 1791 4666 
L 1791 0 
L 588 0 
L 588 4666 
z
" transform="scale(0.015625)"/>
      <path id="DejaVuSans-Bold-6e" d="M 4056 2131 
L 4056 0 
L 2931 0 
L 2931 347 
L 2931 1631 
Q 2931 2084 2911 2256 
Q 2891 2428 2841 2509 
Q 2775 2619 2662 2680 
Q 2550 2741 2406 2741 
Q 2056 2741 1856 2470 
Q 1656 2200 1656 1722 
L 1656 0 
L 538 0 
L 538 3500 
L 1656 3500 
L 1656 2988 
Q 1909 3294 2193 3439 
Q 2478 3584 2822 3584 
Q 3428 3584 3742 3212 
Q 4056 2841 4056 2131 
z
" transform="scale(0.015625)"/>
      <path id="DejaVuSans-Bold-70" d="M 1656 506 
L 1656 -1331 
L 538 -1331 
L 538 3500 
L 1656 3500 
L 1656 2988 
Q 1888 3294 2169 3439 
Q 2450 3584 2816 3584 
Q 3463 3584 3878 3070 
Q 4294 2556 4294 1747 
Q 4294 938 3878 423 
Q 3463 -91 2816 -91 
Q 2450 -91 2169 54 
Q 1888 200 1656 506 
z
M 2400 2772 
Q 2041 2772 1848 2508 
Q 1656 2244 1656 1747 
Q 1656 1250 1848 986 
Q 2041 722 2400 722 
Q 2759 722 2948 984 
Q 3138 1247 3138 1747 
Q 3138 2247 2948 2509 
Q 2759 2772 2400 2772 
z
" transform="scale(0.015625)"/>
      <path id="DejaVuSans-Bold-75" d="M 500 1363 
L 500 3500 
L 1625 3500 
L 1625 3150 
Q 1625 2866 1622 2436 
Q 1619 2006 1619 1863 
Q 1619 1441 1641 1255 
Q 1663 1069 1716 984 
Q 1784 875 1895 815 
Q 2006 756 2150 756 
Q 2500 756 2700 1025 
Q 2900 1294 2900 1772 
L 2900 3500 
L 4019 3500 
L 4019 0 
L 2900 0 
L 2900 506 
Q 2647 200 2364 54 
Q 2081 -91 1741 -91 
Q 1134 -91 817 281 
Q 500 653 500 1363 
z
" transform="scale(0.015625)"/>
      <path id="DejaVuSans-Bold-74" d="M 1759 4494 
L 1759 3500 
L 2913 3500 
L 2913 2700 
L 1759 2700 
L 1759 1216 
Q 1759 972 1856 886 
Q 1953 800 2241 800 
L 2816 800 
L 2816 0 
L 1856 0 
Q 1194 0 917 276 
Q 641 553 641 1216 
L 641 2700 
L 84 2700 
L 84 3500 
L 641 3500 
L 641 4494 
L 1759 4494 
z
" transform="scale(0.015625)"/>
      <path id="DejaVuSans-Bold-20" transform="scale(0.015625)"/>
      <path id="DejaVuSans-Bold-6d" d="M 3781 2919 
Q 3994 3244 4286 3414 
Q 4578 3584 4928 3584 
Q 5531 3584 5847 3212 
Q 6163 2841 6163 2131 
L 6163 0 
L 5038 0 
L 5038 1825 
Q 5041 1866 5042 1909 
Q 5044 1953 5044 2034 
Q 5044 2406 4934 2573 
Q 4825 2741 4581 2741 
Q 4263 2741 4089 2478 
Q 3916 2216 3909 1719 
L 3909 0 
L 2784 0 
L 2784 1825 
Q 2784 2406 2684 2573 
Q 2584 2741 2328 2741 
Q 2006 2741 1831 2477 
Q 1656 2213 1656 1722 
L 1656 0 
L 531 0 
L 531 3500 
L 1656 3500 
L 1656 2988 
Q 1863 3284 2130 3434 
Q 2397 3584 2719 3584 
Q 3081 3584 3359 3409 
Q 3638 3234 3781 2919 
z
" transform="scale(0.015625)"/>
      <path id="DejaVuSans-Bold-61" d="M 2106 1575 
Q 1756 1575 1579 1456 
Q 1403 1338 1403 1106 
Q 1403 894 1545 773 
Q 1688 653 1941 653 
Q 2256 653 2472 879 
Q 2688 1106 2688 1447 
L 2688 1575 
L 2106 1575 
z
M 3816 1997 
L 3816 0 
L 2688 0 
L 2688 519 
Q 2463 200 2181 54 
Q 1900 -91 1497 -91 
Q 953 -91 614 226 
Q 275 544 275 1050 
Q 275 1666 698 1953 
Q 1122 2241 2028 2241 
L 2688 2241 
L 2688 2328 
Q 2688 2594 2478 2717 
Q 2269 2841 1825 2841 
Q 1466 2841 1156 2769 
Q 847 2697 581 2553 
L 581 3406 
Q 941 3494 1303 3539 
Q 1666 3584 2028 3584 
Q 2975 3584 3395 3211 
Q 3816 2838 3816 1997 
z
" transform="scale(0.015625)"/>
      <path id="DejaVuSans-Bold-67" d="M 2919 594 
Q 2688 288 2409 144 
Q 2131 0 1766 0 
Q 1125 0 706 504 
Q 288 1009 288 1791 
Q 288 2575 706 3076 
Q 1125 3578 1766 3578 
Q 2131 3578 2409 3434 
Q 2688 3291 2919 2981 
L 2919 3500 
L 4044 3500 
L 4044 353 
Q 4044 -491 3511 -936 
Q 2978 -1381 1966 -1381 
Q 1638 -1381 1331 -1331 
Q 1025 -1281 716 -1178 
L 716 -306 
Q 1009 -475 1290 -558 
Q 1572 -641 1856 -641 
Q 2406 -641 2662 -400 
Q 2919 -159 2919 353 
L 2919 594 
z
M 2181 2772 
Q 1834 2772 1640 2515 
Q 1447 2259 1447 1791 
Q 1447 1309 1634 1061 
Q 1822 813 2181 813 
Q 2531 813 2725 1069 
Q 2919 1325 2919 1791 
Q 2919 2259 2725 2515 
Q 2531 2772 2181 2772 
z
" transform="scale(0.015625)"/>
      <path id="DejaVuSans-Bold-65" d="M 4031 1759 
L 4031 1441 
L 1416 1441 
Q 1456 1047 1700 850 
Q 1944 653 2381 653 
Q 2734 653 3104 758 
Q 3475 863 3866 1075 
L 3866 213 
Q 3469 63 3072 -14 
Q 2675 -91 2278 -91 
Q 1328 -91 801 392 
Q 275 875 275 1747 
Q 275 2603 792 3093 
Q 1309 3584 2216 3584 
Q 3041 3584 3536 3087 
Q 4031 2591 4031 1759 
z
M 2881 2131 
Q 2881 2450 2695 2645 
Q 2509 2841 2209 2841 
Q 1884 2841 1681 2658 
Q 1478 2475 1428 2131 
L 2881 2131 
z
" transform="scale(0.015625)"/>
     </defs>
     <use xlink:href="#DejaVuSans-Bold-49"/>
     <use xlink:href="#DejaVuSans-Bold-6e" transform="translate(37.207031 0)"/>
     <use xlink:href="#DejaVuSans-Bold-70" transform="translate(108.398438 0)"/>
     <use xlink:href="#DejaVuSans-Bold-75" transform="translate(179.980469 0)"/>
     <use xlink:href="#DejaVuSans-Bold-74" transform="translate(251.171875 0)"/>
     <use xlink:href="#DejaVuSans-Bold-20" transform="translate(298.974609 0)"/>
     <use xlink:href="#DejaVuSans-Bold-49" transform="translate(333.789062 0)"/>
     <use xlink:href="#DejaVuSans-Bold-6d" transform="translate(370.996094 0)"/>
     <use xlink:href="#DejaVuSans-Bold-61" transform="translate(475.195312 0)"/>
     <use xlink:href="#DejaVuSans-Bold-67" transform="translate(542.675781 0)"/>
     <use xlink:href="#DejaVuSans-Bold-65" transform="translate(614.257812 0)"/>
    </g>
   </g>
   <g id="text_2">
    <!-- RGB -->
    <g transform="translate(40455.732656 26699.111875) scale(0.06 -0.06)">
     <defs>
      <path id="DejaVuSans-52" d="M 2841 2188 
Q 3044 2119 3236 1894 
Q 3428 1669 3622 1275 
L 4263 0 
L 3584 0 
L 2988 1197 
Q 2756 1666 2539 1819 
Q 2322 1972 1947 1972 
L 1259 1972 
L 1259 0 
L 628 0 
L 628 4666 
L 2053 4666 
Q 2853 4666 3247 4331 
Q 3641 3997 3641 3322 
Q 3641 2881 3436 2590 
Q 3231 2300 2841 2188 
z
M 1259 4147 
L 1259 2491 
L 2053 2491 
Q 2509 2491 2742 2702 
Q 2975 2913 2975 3322 
Q 2975 3731 2742 3939 
Q 2509 4147 2053 4147 
L 1259 4147 
z
" transform="scale(0.015625)"/>
      <path id="DejaVuSans-47" d="M 3809 666 
L 3809 1919 
L 2778 1919 
L 2778 2438 
L 4434 2438 
L 4434 434 
Q 4069 175 3628 42 
Q 3188 -91 2688 -91 
Q 1594 -91 976 548 
Q 359 1188 359 2328 
Q 359 3472 976 4111 
Q 1594 4750 2688 4750 
Q 3144 4750 3555 4637 
Q 3966 4525 4313 4306 
L 4313 3634 
Q 3963 3931 3569 4081 
Q 3175 4231 2741 4231 
Q 1884 4231 1454 3753 
Q 1025 3275 1025 2328 
Q 1025 1384 1454 906 
Q 1884 428 2741 428 
Q 3075 428 3337 486 
Q 3600 544 3809 666 
z
" transform="scale(0.015625)"/>
      <path id="DejaVuSans-42" d="M 1259 2228 
L 1259 519 
L 2272 519 
Q 2781 519 3026 730 
Q 3272 941 3272 1375 
Q 3272 1813 3026 2020 
Q 2781 2228 2272 2228 
L 1259 2228 
z
M 1259 4147 
L 1259 2741 
L 2194 2741 
Q 2656 2741 2882 2914 
Q 3109 3088 3109 3444 
Q 3109 3797 2882 3972 
Q 2656 4147 2194 4147 
L 1259 4147 
z
M 628 4666 
L 2241 4666 
Q 2963 4666 3353 4366 
Q 3744 4066 3744 3513 
Q 3744 3084 3544 2831 
Q 3344 2578 2956 2516 
Q 3422 2416 3680 2098 
Q 3938 1781 3938 1306 
Q 3938 681 3513 340 
Q 3088 0 2303 0 
L 628 0 
L 628 4666 
z
" transform="scale(0.015625)"/>
     </defs>
     <use xlink:href="#DejaVuSans-52"/>
     <use xlink:href="#DejaVuSans-47" transform="translate(69.482422 0)"/>
     <use xlink:href="#DejaVuSans-42" transform="translate(146.972656 0)"/>
    </g>
   </g>
   <g id="text_3">
    <!-- RGB -->
    <g transform="translate(43245.732656 26699.111875) scale(0.06 -0.06)">
     <use xlink:href="#DejaVuSans-52"/>
     <use xlink:href="#DejaVuSans-47" transform="translate(69.482422 0)"/>
     <use xlink:href="#DejaVuSans-42" transform="translate(146.972656 0)"/>
    </g>
   </g>
   <g id="text_4">
    <!-- RGB -->
    <g transform="translate(46035.732656 26699.111875) scale(0.06 -0.06)">
     <use xlink:href="#DejaVuSans-52"/>
     <use xlink:href="#DejaVuSans-47" transform="translate(69.482422 0)"/>
     <use xlink:href="#DejaVuSans-42" transform="translate(146.972656 0)"/>
    </g>
   </g>
   <g id="text_5">
    <!-- RGB -->
    <g transform="translate(48825.732656 26699.111875) scale(0.06 -0.06)">
     <use xlink:href="#DejaVuSans-52"/>
     <use xlink:href="#DejaVuSans-47" transform="translate(69.482422 0)"/>
     <use xlink:href="#DejaVuSans-42" transform="translate(146.972656 0)"/>
    </g>
   </g>
   <g id="text_6">
    <!-- RGB -->
    <g transform="translate(40455.732656 30164.111875) scale(0.06 -0.06)">
     <use xlink:href="#DejaVuSans-52"/>
     <use xlink:href="#DejaVuSans-47" transform="translate(69.482422 0)"/>
     <use xlink:href="#DejaVuSans-42" transform="translate(146.972656 0)"/>
    </g>
   </g>
   <g id="text_7">
    <!-- RGB -->
    <g transform="translate(43245.732656 30164.111875) scale(0.06 -0.06)">
     <use xlink:href="#DejaVuSans-52"/>
     <use xlink:href="#DejaVuSans-47" transform="translate(69.482422 0)"/>
     <use xlink:href="#DejaVuSans-42" transform="translate(146.972656 0)"/>
    </g>
   </g>
   <g id="text_8">
    <!-- RGB -->
    <g transform="translate(46035.732656 30164.111875) scale(0.06 -0.06)">
     <use xlink:href="#DejaVuSans-52"/>
     <use xlink:href="#DejaVuSans-47" transform="translate(69.482422 0)"/>
     <use xlink:href="#DejaVuSans-42" transform="translate(146.972656 0)"/>
    </g>
   </g>
   <g id="text_9">
    <!-- RGB -->
    <g transform="translate(48825.732656 30164.111875) scale(0.06 -0.06)">
     <use xlink:href="#DejaVuSans-52"/>
     <use xlink:href="#DejaVuSans-47" transform="translate(69.482422 0)"/>
     <use xlink:href="#DejaVuSans-42" transform="translate(146.972656 0)"/>
    </g>
   </g>
   <g id="text_10">
    <!-- RGB -->
    <g transform="translate(40455.732656 33629.111875) scale(0.06 -0.06)">
     <use xlink:href="#DejaVuSans-52"/>
     <use xlink:href="#DejaVuSans-47" transform="translate(69.482422 0)"/>
     <use xlink:href="#DejaVuSans-42" transform="translate(146.972656 0)"/>
    </g>
   </g>
   <g id="text_11">
    <!-- RGB -->
    <g transform="translate(43245.732656 33629.111875) scale(0.06 -0.06)">
     <use xlink:href="#DejaVuSans-52"/>
     <use xlink:href="#DejaVuSans-47" transform="translate(69.482422 0)"/>
     <use xlink:href="#DejaVuSans-42" transform="translate(146.972656 0)"/>
    </g>
   </g>
   <g id="text_12">
    <!-- RGB -->
    <g transform="translate(46035.732656 33629.111875) scale(0.06 -0.06)">
     <use xlink:href="#DejaVuSans-52"/>
     <use xlink:href="#DejaVuSans-47" transform="translate(69.482422 0)"/>
     <use xlink:href="#DejaVuSans-42" transform="translate(146.972656 0)"/>
    </g>
   </g>
   <g id="text_13">
    <!-- RGB -->
    <g transform="translate(48825.732656 33629.111875) scale(0.06 -0.06)">
     <use xlink:href="#DejaVuSans-52"/>
     <use xlink:href="#DejaVuSans-47" transform="translate(69.482422 0)"/>
     <use xlink:href="#DejaVuSans-42" transform="translate(146.972656 0)"/>
    </g>
   </g>
   <g id="text_14">
    <!-- RGB -->
    <g transform="translate(40455.732656 37094.111875) scale(0.06 -0.06)">
     <use xlink:href="#DejaVuSans-52"/>
     <use xlink:href="#DejaVuSans-47" transform="translate(69.482422 0)"/>
     <use xlink:href="#DejaVuSans-42" transform="translate(146.972656 0)"/>
    </g>
   </g>
   <g id="text_15">
    <!-- RGB -->
    <g transform="translate(43245.732656 37094.111875) scale(0.06 -0.06)">
     <use xlink:href="#DejaVuSans-52"/>
     <use xlink:href="#DejaVuSans-47" transform="translate(69.482422 0)"/>
     <use xlink:href="#DejaVuSans-42" transform="translate(146.972656 0)"/>
    </g>
   </g>
   <g id="text_16">
    <!-- RGB -->
    <g transform="translate(46035.732656 37094.111875) scale(0.06 -0.06)">
     <use xlink:href="#DejaVuSans-52"/>
     <use xlink:href="#DejaVuSans-47" transform="translate(69.482422 0)"/>
     <use xlink:href="#DejaVuSans-42" transform="translate(146.972656 0)"/>
    </g>
   </g>
   <g id="text_17">
    <!-- RGB -->
    <g transform="translate(48825.732656 37094.111875) scale(0.06 -0.06)">
     <use xlink:href="#DejaVuSans-52"/>
     <use xlink:href="#DejaVuSans-47" transform="translate(69.482422 0)"/>
     <use xlink:href="#DejaVuSans-42" transform="translate(146.972656 0)"/>
    </g>
   </g>
   <g id="text_18">
    <!-- CUDA Kernel (Grayscale) -->
    <g transform="translate(111523.708125 22202.074375) scale(0.12 -0.12)">
     <defs>
      <path id="DejaVuSans-Bold-43" d="M 4288 256 
Q 3956 84 3597 -3 
Q 3238 -91 2847 -91 
Q 1681 -91 1000 561 
Q 319 1213 319 2328 
Q 319 3447 1000 4098 
Q 1681 4750 2847 4750 
Q 3238 4750 3597 4662 
Q 3956 4575 4288 4403 
L 4288 3438 
Q 3953 3666 3628 3772 
Q 3303 3878 2944 3878 
Q 2300 3878 1931 3465 
Q 1563 3053 1563 2328 
Q 1563 1606 1931 1193 
Q 2300 781 2944 781 
Q 3303 781 3628 887 
Q 3953 994 4288 1222 
L 4288 256 
z
" transform="scale(0.015625)"/>
      <path id="DejaVuSans-Bold-55" d="M 588 4666 
L 1791 4666 
L 1791 1869 
Q 1791 1291 1980 1042 
Q 2169 794 2597 794 
Q 3028 794 3217 1042 
Q 3406 1291 3406 1869 
L 3406 4666 
L 4609 4666 
L 4609 1869 
Q 4609 878 4112 393 
Q 3616 -91 2597 -91 
Q 1581 -91 1084 393 
Q 588 878 588 1869 
L 588 4666 
z
" transform="scale(0.015625)"/>
      <path id="DejaVuSans-Bold-44" d="M 1791 3756 
L 1791 909 
L 2222 909 
Q 2959 909 3348 1275 
Q 3738 1641 3738 2338 
Q 3738 3031 3350 3393 
Q 2963 3756 2222 3756 
L 1791 3756 
z
M 588 4666 
L 1856 4666 
Q 2919 4666 3439 4514 
Q 3959 4363 4331 4000 
Q 4659 3684 4818 3271 
Q 4978 2859 4978 2338 
Q 4978 1809 4818 1395 
Q 4659 981 4331 666 
Q 3956 303 3431 151 
Q 2906 0 1856 0 
L 588 0 
L 588 4666 
z
" transform="scale(0.015625)"/>
      <path id="DejaVuSans-Bold-41" d="M 3419 850 
L 1538 850 
L 1241 0 
L 31 0 
L 1759 4666 
L 3194 4666 
L 4922 0 
L 3713 0 
L 3419 850 
z
M 1838 1716 
L 3116 1716 
L 2478 3572 
L 1838 1716 
z
" transform="scale(0.015625)"/>
      <path id="DejaVuSans-Bold-4b" d="M 588 4666 
L 1791 4666 
L 1791 2963 
L 3525 4666 
L 4922 4666 
L 2675 2456 
L 5153 0 
L 3647 0 
L 1791 1838 
L 1791 0 
L 588 0 
L 588 4666 
z
" transform="scale(0.015625)"/>
      <path id="DejaVuSans-Bold-72" d="M 3138 2547 
Q 2991 2616 2845 2648 
Q 2700 2681 2553 2681 
Q 2122 2681 1889 2404 
Q 1656 2128 1656 1613 
L 1656 0 
L 538 0 
L 538 3500 
L 1656 3500 
L 1656 2925 
Q 1872 3269 2151 3426 
Q 2431 3584 2822 3584 
Q 2878 3584 2943 3579 
Q 3009 3575 3134 3559 
L 3138 2547 
z
" transform="scale(0.015625)"/>
      <path id="DejaVuSans-Bold-6c" d="M 538 4863 
L 1656 4863 
L 1656 0 
L 538 0 
L 538 4863 
z
" transform="scale(0.015625)"/>
      <path id="DejaVuSans-Bold-28" d="M 2413 -844 
L 1484 -844 
Q 1006 -72 778 623 
Q 550 1319 550 2003 
Q 550 2688 779 3389 
Q 1009 4091 1484 4856 
L 2413 4856 
Q 2013 4116 1813 3408 
Q 1613 2700 1613 2009 
Q 1613 1319 1811 609 
Q 2009 -100 2413 -844 
z
" transform="scale(0.015625)"/>
      <path id="DejaVuSans-Bold-47" d="M 4781 347 
Q 4331 128 3847 18 
Q 3363 -91 2847 -91 
Q 1681 -91 1000 561 
Q 319 1213 319 2328 
Q 319 3456 1012 4103 
Q 1706 4750 2913 4750 
Q 3378 4750 3804 4662 
Q 4231 4575 4609 4403 
L 4609 3438 
Q 4219 3659 3833 3768 
Q 3447 3878 3059 3878 
Q 2341 3878 1952 3476 
Q 1563 3075 1563 2328 
Q 1563 1588 1938 1184 
Q 2313 781 3003 781 
Q 3191 781 3352 804 
Q 3513 828 3641 878 
L 3641 1784 
L 2906 1784 
L 2906 2591 
L 4781 2591 
L 4781 347 
z
" transform="scale(0.015625)"/>
      <path id="DejaVuSans-Bold-79" d="M 78 3500 
L 1197 3500 
L 2138 1125 
L 2938 3500 
L 4056 3500 
L 2584 -331 
Q 2363 -916 2067 -1148 
Q 1772 -1381 1288 -1381 
L 641 -1381 
L 641 -647 
L 991 -647 
Q 1275 -647 1404 -556 
Q 1534 -466 1606 -231 
L 1638 -134 
L 78 3500 
z
" transform="scale(0.015625)"/>
      <path id="DejaVuSans-Bold-73" d="M 3272 3391 
L 3272 2541 
Q 2913 2691 2578 2766 
Q 2244 2841 1947 2841 
Q 1628 2841 1473 2761 
Q 1319 2681 1319 2516 
Q 1319 2381 1436 2309 
Q 1553 2238 1856 2203 
L 2053 2175 
Q 2913 2066 3209 1816 
Q 3506 1566 3506 1031 
Q 3506 472 3093 190 
Q 2681 -91 1863 -91 
Q 1516 -91 1145 -36 
Q 775 19 384 128 
L 384 978 
Q 719 816 1070 734 
Q 1422 653 1784 653 
Q 2113 653 2278 743 
Q 2444 834 2444 1013 
Q 2444 1163 2330 1236 
Q 2216 1309 1875 1350 
L 1678 1375 
Q 931 1469 631 1722 
Q 331 1975 331 2491 
Q 331 3047 712 3315 
Q 1094 3584 1881 3584 
Q 2191 3584 2531 3537 
Q 2872 3491 3272 3391 
z
" transform="scale(0.015625)"/>
      <path id="DejaVuSans-Bold-63" d="M 3366 3391 
L 3366 2478 
Q 3138 2634 2908 2709 
Q 2678 2784 2431 2784 
Q 1963 2784 1702 2511 
Q 1441 2238 1441 1747 
Q 1441 1256 1702 982 
Q 1963 709 2431 709 
Q 2694 709 2930 787 
Q 3166 866 3366 1019 
L 3366 103 
Q 3103 6 2833 -42 
Q 2563 -91 2291 -91 
Q 1344 -91 809 395 
Q 275 881 275 1747 
Q 275 2613 809 3098 
Q 1344 3584 2291 3584 
Q 2566 3584 2833 3536 
Q 3100 3488 3366 3391 
z
" transform="scale(0.015625)"/>
      <path id="DejaVuSans-Bold-29" d="M 513 -844 
Q 913 -100 1113 609 
Q 1313 1319 1313 2009 
Q 1313 2700 1113 3408 
Q 913 4116 513 4856 
L 1441 4856 
Q 1916 4091 2145 3389 
Q 2375 2688 2375 2003 
Q 2375 1319 2147 623 
Q 1919 -72 1441 -844 
L 513 -844 
z
" transform="scale(0.015625)"/>
     </defs>
     <use xlink:href="#DejaVuSans-Bold-43"/>
     <use xlink:href="#DejaVuSans-Bold-55" transform="translate(73.388672 0)"/>
     <use xlink:href="#DejaVuSans-Bold-44" transform="translate(154.589844 0)"/>
     <use xlink:href="#DejaVuSans-Bold-41" transform="translate(237.597656 0)"/>
     <use xlink:href="#DejaVuSans-Bold-20" transform="translate(314.990234 0)"/>
     <use xlink:href="#DejaVuSans-Bold-4b" transform="translate(349.804688 0)"/>
     <use xlink:href="#DejaVuSans-Bold-65" transform="translate(425.544922 0)"/>
     <use xlink:href="#DejaVuSans-Bold-72" transform="translate(493.367188 0)"/>
     <use xlink:href="#DejaVuSans-Bold-6e" transform="translate(542.683594 0)"/>
     <use xlink:href="#DejaVuSans-Bold-65" transform="translate(613.875 0)"/>
     <use xlink:href="#DejaVuSans-Bold-6c" transform="translate(681.697266 0)"/>
     <use xlink:href="#DejaVuSans-Bold-20" transform="translate(715.974609 0)"/>
     <use xlink:href="#DejaVuSans-Bold-28" transform="translate(750.789062 0)"/>
     <use xlink:href="#DejaVuSans-Bold-47" transform="translate(796.492188 0)"/>
     <use xlink:href="#DejaVuSans-Bold-72" transform="translate(878.572266 0)"/>
     <use xlink:href="#DejaVuSans-Bold-61" transform="translate(927.888672 0)"/>
     <use xlink:href="#DejaVuSans-Bold-79" transform="translate(992.244141 0)"/>
     <use xlink:href="#DejaVuSans-Bold-73" transform="translate(1057.429688 0)"/>
     <use xlink:href="#DejaVuSans-Bold-63" transform="translate(1116.951172 0)"/>
     <use xlink:href="#DejaVuSans-Bold-61" transform="translate(1176.228516 0)"/>
     <use xlink:href="#DejaVuSans-Bold-6c" transform="translate(1243.708984 0)"/>
     <use xlink:href="#DejaVuSans-Bold-65" transform="translate(1277.986328 0)"/>
     <use xlink:href="#DejaVuSans-Bold-29" transform="translate(1345.808594 0)"/>
    </g>
   </g>
   <g id="text_19">
    <!-- Converts (R, G, B) to Grayscale. -->
    <g transform="translate(111527.575 34669.715625) scale(0.1 -0.1)">
     <defs>
      <path id="DejaVuSans-43" d="M 4122 4306 
L 4122 3641 
Q 3803 3938 3442 4084 
Q 3081 4231 2675 4231 
Q 1875 4231 1450 3742 
Q 1025 3253 1025 2328 
Q 1025 1406 1450 917 
Q 1875 428 2675 428 
Q 3081 428 3442 575 
Q 3803 722 4122 1019 
L 4122 359 
Q 3791 134 3420 21 
Q 3050 -91 2638 -91 
Q 1578 -91 968 557 
Q 359 1206 359 2328 
Q 359 3453 968 4101 
Q 1578 4750 2638 4750 
Q 3056 4750 3426 4639 
Q 3797 4528 4122 4306 
z
" transform="scale(0.015625)"/>
      <path id="DejaVuSans-6f" d="M 1959 3097 
Q 1497 3097 1228 2736 
Q 959 2375 959 1747 
Q 959 1119 1226 758 
Q 1494 397 1959 397 
Q 2419 397 2687 759 
Q 2956 1122 2956 1747 
Q 2956 2369 2687 2733 
Q 2419 3097 1959 3097 
z
M 1959 3584 
Q 2709 3584 3137 3096 
Q 3566 2609 3566 1747 
Q 3566 888 3137 398 
Q 2709 -91 1959 -91 
Q 1206 -91 779 398 
Q 353 888 353 1747 
Q 353 2609 779 3096 
Q 1206 3584 1959 3584 
z
" transform="scale(0.015625)"/>
      <path id="DejaVuSans-6e" d="M 3513 2113 
L 3513 0 
L 2938 0 
L 2938 2094 
Q 2938 2591 2744 2837 
Q 2550 3084 2163 3084 
Q 1697 3084 1428 2787 
Q 1159 2491 1159 1978 
L 1159 0 
L 581 0 
L 581 3500 
L 1159 3500 
L 1159 2956 
Q 1366 3272 1645 3428 
Q 1925 3584 2291 3584 
Q 2894 3584 3203 3211 
Q 3513 2838 3513 2113 
z
" transform="scale(0.015625)"/>
      <path id="DejaVuSans-76" d="M 191 3500 
L 800 3500 
L 1894 563 
L 2988 3500 
L 3597 3500 
L 2284 0 
L 1503 0 
L 191 3500 
z
" transform="scale(0.015625)"/>
      <path id="DejaVuSans-65" d="M 3597 1894 
L 3597 1613 
L 953 1613 
Q 991 1019 1311 708 
Q 1631 397 2203 397 
Q 2534 397 2845 478 
Q 3156 559 3463 722 
L 3463 178 
Q 3153 47 2828 -22 
Q 2503 -91 2169 -91 
Q 1331 -91 842 396 
Q 353 884 353 1716 
Q 353 2575 817 3079 
Q 1281 3584 2069 3584 
Q 2775 3584 3186 3129 
Q 3597 2675 3597 1894 
z
M 3022 2063 
Q 3016 2534 2758 2815 
Q 2500 3097 2075 3097 
Q 1594 3097 1305 2825 
Q 1016 2553 972 2059 
L 3022 2063 
z
" transform="scale(0.015625)"/>
      <path id="DejaVuSans-72" d="M 2631 2963 
Q 2534 3019 2420 3045 
Q 2306 3072 2169 3072 
Q 1681 3072 1420 2755 
Q 1159 2438 1159 1844 
L 1159 0 
L 581 0 
L 581 3500 
L 1159 3500 
L 1159 2956 
Q 1341 3275 1631 3429 
Q 1922 3584 2338 3584 
Q 2397 3584 2469 3576 
Q 2541 3569 2628 3553 
L 2631 2963 
z
" transform="scale(0.015625)"/>
      <path id="DejaVuSans-74" d="M 1172 4494 
L 1172 3500 
L 2356 3500 
L 2356 3053 
L 1172 3053 
L 1172 1153 
Q 1172 725 1289 603 
Q 1406 481 1766 481 
L 2356 481 
L 2356 0 
L 1766 0 
Q 1100 0 847 248 
Q 594 497 594 1153 
L 594 3053 
L 172 3053 
L 172 3500 
L 594 3500 
L 594 4494 
L 1172 4494 
z
" transform="scale(0.015625)"/>
      <path id="DejaVuSans-73" d="M 2834 3397 
L 2834 2853 
Q 2591 2978 2328 3040 
Q 2066 3103 1784 3103 
Q 1356 3103 1142 2972 
Q 928 2841 928 2578 
Q 928 2378 1081 2264 
Q 1234 2150 1697 2047 
L 1894 2003 
Q 2506 1872 2764 1633 
Q 3022 1394 3022 966 
Q 3022 478 2636 193 
Q 2250 -91 1575 -91 
Q 1294 -91 989 -36 
Q 684 19 347 128 
L 347 722 
Q 666 556 975 473 
Q 1284 391 1588 391 
Q 1994 391 2212 530 
Q 2431 669 2431 922 
Q 2431 1156 2273 1281 
Q 2116 1406 1581 1522 
L 1381 1569 
Q 847 1681 609 1914 
Q 372 2147 372 2553 
Q 372 3047 722 3315 
Q 1072 3584 1716 3584 
Q 2034 3584 2315 3537 
Q 2597 3491 2834 3397 
z
" transform="scale(0.015625)"/>
      <path id="DejaVuSans-20" transform="scale(0.015625)"/>
      <path id="DejaVuSans-28" d="M 1984 4856 
Q 1566 4138 1362 3434 
Q 1159 2731 1159 2009 
Q 1159 1288 1364 580 
Q 1569 -128 1984 -844 
L 1484 -844 
Q 1016 -109 783 600 
Q 550 1309 550 2009 
Q 550 2706 781 3412 
Q 1013 4119 1484 4856 
L 1984 4856 
z
" transform="scale(0.015625)"/>
      <path id="DejaVuSans-2c" d="M 750 794 
L 1409 794 
L 1409 256 
L 897 -744 
L 494 -744 
L 750 256 
L 750 794 
z
" transform="scale(0.015625)"/>
      <path id="DejaVuSans-29" d="M 513 4856 
L 1013 4856 
Q 1481 4119 1714 3412 
Q 1947 2706 1947 2009 
Q 1947 1309 1714 600 
Q 1481 -109 1013 -844 
L 513 -844 
Q 928 -128 1133 580 
Q 1338 1288 1338 2009 
Q 1338 2731 1133 3434 
Q 928 4138 513 4856 
z
" transform="scale(0.015625)"/>
      <path id="DejaVuSans-61" d="M 2194 1759 
Q 1497 1759 1228 1600 
Q 959 1441 959 1056 
Q 959 750 1161 570 
Q 1363 391 1709 391 
Q 2188 391 2477 730 
Q 2766 1069 2766 1631 
L 2766 1759 
L 2194 1759 
z
M 3341 1997 
L 3341 0 
L 2766 0 
L 2766 531 
Q 2569 213 2275 61 
Q 1981 -91 1556 -91 
Q 1019 -91 701 211 
Q 384 513 384 1019 
Q 384 1609 779 1909 
Q 1175 2209 1959 2209 
L 2766 2209 
L 2766 2266 
Q 2766 2663 2505 2880 
Q 2244 3097 1772 3097 
Q 1472 3097 1187 3025 
Q 903 2953 641 2809 
L 641 3341 
Q 956 3463 1253 3523 
Q 1550 3584 1831 3584 
Q 2591 3584 2966 3190 
Q 3341 2797 3341 1997 
z
" transform="scale(0.015625)"/>
      <path id="DejaVuSans-79" d="M 2059 -325 
Q 1816 -950 1584 -1140 
Q 1353 -1331 966 -1331 
L 506 -1331 
L 506 -850 
L 844 -850 
Q 1081 -850 1212 -737 
Q 1344 -625 1503 -206 
L 1606 56 
L 191 3500 
L 800 3500 
L 1894 763 
L 2988 3500 
L 3597 3500 
L 2059 -325 
z
" transform="scale(0.015625)"/>
      <path id="DejaVuSans-63" d="M 3122 3366 
L 3122 2828 
Q 2878 2963 2633 3030 
Q 2388 3097 2138 3097 
Q 1578 3097 1268 2742 
Q 959 2388 959 1747 
Q 959 1106 1268 751 
Q 1578 397 2138 397 
Q 2388 397 2633 464 
Q 2878 531 3122 666 
L 3122 134 
Q 2881 22 2623 -34 
Q 2366 -91 2075 -91 
Q 1284 -91 818 406 
Q 353 903 353 1747 
Q 353 2603 823 3093 
Q 1294 3584 2113 3584 
Q 2378 3584 2631 3529 
Q 2884 3475 3122 3366 
z
" transform="scale(0.015625)"/>
      <path id="DejaVuSans-6c" d="M 603 4863 
L 1178 4863 
L 1178 0 
L 603 0 
L 603 4863 
z
" transform="scale(0.015625)"/>
      <path id="DejaVuSans-2e" d="M 684 794 
L 1344 794 
L 1344 0 
L 684 0 
L 684 794 
z
" transform="scale(0.015625)"/>
     </defs>
     <use xlink:href="#DejaVuSans-43"/>
     <use xlink:href="#DejaVuSans-6f" transform="translate(69.824219 0)"/>
     <use xlink:href="#DejaVuSans-6e" transform="translate(131.005859 0)"/>
     <use xlink:href="#DejaVuSans-76" transform="translate(194.384766 0)"/>
     <use xlink:href="#DejaVuSans-65" transform="translate(253.564453 0)"/>
     <use xlink:href="#DejaVuSans-72" transform="translate(315.087891 0)"/>
     <use xlink:href="#DejaVuSans-74" transform="translate(356.201172 0)"/>
     <use xlink:href="#DejaVuSans-73" transform="translate(395.410156 0)"/>
     <use xlink:href="#DejaVuSans-20" transform="translate(447.509766 0)"/>
     <use xlink:href="#DejaVuSans-28" transform="translate(479.296875 0)"/>
     <use xlink:href="#DejaVuSans-52" transform="translate(518.310547 0)"/>
     <use xlink:href="#DejaVuSans-2c" transform="translate(587.792969 0)"/>
     <use xlink:href="#DejaVuSans-20" transform="translate(619.580078 0)"/>
     <use xlink:href="#DejaVuSans-47" transform="translate(651.367188 0)"/>
     <use xlink:href="#DejaVuSans-2c" transform="translate(728.857422 0)"/>
     <use xlink:href="#DejaVuSans-20" transform="translate(760.644531 0)"/>
     <use xlink:href="#DejaVuSans-42" transform="translate(792.431641 0)"/>
     <use xlink:href="#DejaVuSans-29" transform="translate(861.035156 0)"/>
     <use xlink:href="#DejaVuSans-20" transform="translate(900.048828 0)"/>
     <use xlink:href="#DejaVuSans-74" transform="translate(931.835938 0)"/>
     <use xlink:href="#DejaVuSans-6f" transform="translate(971.044922 0)"/>
     <use xlink:href="#DejaVuSans-20" transform="translate(1032.226562 0)"/>
     <use xlink:href="#DejaVuSans-47" transform="translate(1064.013672 0)"/>
     <use xlink:href="#DejaVuSans-72" transform="translate(1141.503906 0)"/>
     <use xlink:href="#DejaVuSans-61" transform="translate(1182.617188 0)"/>
     <use xlink:href="#DejaVuSans-79" transform="translate(1243.896484 0)"/>
     <use xlink:href="#DejaVuSans-73" transform="translate(1303.076172 0)"/>
     <use xlink:href="#DejaVuSans-63" transform="translate(1355.175781 0)"/>
     <use xlink:href="#DejaVuSans-61" transform="translate(1410.15625 0)"/>
     <use xlink:href="#DejaVuSans-6c" transform="translate(1471.435547 0)"/>
     <use xlink:href="#DejaVuSans-65" transform="translate(1499.21875 0)"/>
     <use xlink:href="#DejaVuSans-2e" transform="translate(1560.742188 0)"/>
    </g>
   </g>
   <g id="text_20">
    <!-- Grayscale Output -->
    <g transform="translate(178508.477813 22202.074375) scale(0.12 -0.12)">
     <defs>
      <path id="DejaVuSans-Bold-4f" d="M 2719 3878 
Q 2169 3878 1866 3472 
Q 1563 3066 1563 2328 
Q 1563 1594 1866 1187 
Q 2169 781 2719 781 
Q 3272 781 3575 1187 
Q 3878 1594 3878 2328 
Q 3878 3066 3575 3472 
Q 3272 3878 2719 3878 
z
M 2719 4750 
Q 3844 4750 4481 4106 
Q 5119 3463 5119 2328 
Q 5119 1197 4481 553 
Q 3844 -91 2719 -91 
Q 1597 -91 958 553 
Q 319 1197 319 2328 
Q 319 3463 958 4106 
Q 1597 4750 2719 4750 
z
" transform="scale(0.015625)"/>
     </defs>
     <use xlink:href="#DejaVuSans-Bold-47"/>
     <use xlink:href="#DejaVuSans-Bold-72" transform="translate(82.080078 0)"/>
     <use xlink:href="#DejaVuSans-Bold-61" transform="translate(131.396484 0)"/>
     <use xlink:href="#DejaVuSans-Bold-79" transform="translate(195.751953 0)"/>
     <use xlink:href="#DejaVuSans-Bold-73" transform="translate(260.9375 0)"/>
     <use xlink:href="#DejaVuSans-Bold-63" transform="translate(320.458984 0)"/>
     <use xlink:href="#DejaVuSans-Bold-61" transform="translate(379.736328 0)"/>
     <use xlink:href="#DejaVuSans-Bold-6c" transform="translate(447.216797 0)"/>
     <use xlink:href="#DejaVuSans-Bold-65" transform="translate(481.494141 0)"/>
     <use xlink:href="#DejaVuSans-Bold-20" transform="translate(549.316406 0)"/>
     <use xlink:href="#DejaVuSans-Bold-4f" transform="translate(584.130859 0)"/>
     <use xlink:href="#DejaVuSans-Bold-75" transform="translate(669.140625 0)"/>
     <use xlink:href="#DejaVuSans-Bold-74" transform="translate(740.332031 0)"/>
     <use xlink:href="#DejaVuSans-Bold-70" transform="translate(788.134766 0)"/>
     <use xlink:href="#DejaVuSans-Bold-75" transform="translate(859.716797 0)"/>
     <use xlink:href="#DejaVuSans-Bold-74" transform="translate(930.908203 0)"/>
    </g>
   </g>
   <g id="text_21">
    <!-- G -->
    <g transform="translate(174379.875469 26699.111875) scale(0.06 -0.06)">
     <use xlink:href="#DejaVuSans-47"/>
    </g>
   </g>
   <g id="text_22">
    <!-- G -->
    <g transform="translate(177169.875469 26699.111875) scale(0.06 -0.06)">
     <use xlink:href="#DejaVuSans-47"/>
    </g>
   </g>
   <g id="text_23">
    <!-- G -->
    <g transform="translate(179959.875469 26699.111875) scale(0.06 -0.06)">
     <use xlink:href="#DejaVuSans-47"/>
    </g>
   </g>
   <g id="text_24">
    <!-- G -->
    <g transform="translate(182749.875469 26699.111875) scale(0.06 -0.06)">
     <use xlink:href="#DejaVuSans-47"/>
    </g>
   </g>
   <g id="text_25">
    <!-- G -->
    <g transform="translate(174379.875469 30164.111875) scale(0.06 -0.06)">
     <use xlink:href="#DejaVuSans-47"/>
    </g>
   </g>
   <g id="text_26">
    <!-- G -->
    <g transform="translate(177169.875469 30164.111875) scale(0.06 -0.06)">
     <use xlink:href="#DejaVuSans-47"/>
    </g>
   </g>
   <g id="text_27">
    <!-- G -->
    <g transform="translate(179959.875469 30164.111875) scale(0.06 -0.06)">
     <use xlink:href="#DejaVuSans-47"/>
    </g>
   </g>
   <g id="text_28">
    <!-- G -->
    <g transform="translate(182749.875469 30164.111875) scale(0.06 -0.06)">
     <use xlink:href="#DejaVuSans-47"/>
    </g>
   </g>
   <g id="text_29">
    <!-- G -->
    <g transform="translate(174379.875469 33629.111875) scale(0.06 -0.06)">
     <use xlink:href="#DejaVuSans-47"/>
    </g>
   </g>
   <g id="text_30">
    <!-- G -->
    <g transform="translate(177169.875469 33629.111875) scale(0.06 -0.06)">
     <use xlink:href="#DejaVuSans-47"/>
    </g>
   </g>
   <g id="text_31">
    <!-- G -->
    <g transform="translate(179959.875469 33629.111875) scale(0.06 -0.06)">
     <use xlink:href="#DejaVuSans-47"/>
    </g>
   </g>
   <g id="text_32">
    <!-- G -->
    <g transform="translate(182749.875469 33629.111875) scale(0.06 -0.06)">
     <use xlink:href="#DejaVuSans-47"/>
    </g>
   </g>
   <g id="text_33">
    <!-- G -->
    <g transform="translate(174379.875469 37094.111875) scale(0.06 -0.06)">
     <use xlink:href="#DejaVuSans-47"/>
    </g>
   </g>
   <g id="text_34">
    <!-- G -->
    <g transform="translate(177169.875469 37094.111875) scale(0.06 -0.06)">
     <use xlink:href="#DejaVuSans-47"/>
    </g>
   </g>
   <g id="text_35">
    <!-- G -->
    <g transform="translate(179959.875469 37094.111875) scale(0.06 -0.06)">
     <use xlink:href="#DejaVuSans-47"/>
    </g>
   </g>
   <g id="text_36">
    <!-- G -->
    <g transform="translate(182749.875469 37094.111875) scale(0.06 -0.06)">
     <use xlink:href="#DejaVuSans-47"/>
    </g>
   </g>
   <g id="patch_107">
    <path d="M 61389.198224 34666.95625 
Q 72547.200089 34666.95625 83702.965887 34666.95625 
" clip-path="url(#p28ad4e1748)" style="fill: none; stroke: #6b7280; stroke-width: 2; stroke-linecap: round"/>
    <path d="M 83694.965887 34662.95625 
L 83702.965887 34666.95625 
L 83694.965887 34670.95625 
" clip-path="url(#p28ad4e1748)" style="fill: none; stroke: #6b7280; stroke-width: 2; stroke-linecap: round"/>
   </g>
   <g id="patch_108">
    <path d="M 128349.198224 34666.95625 
Q 139507.200089 34666.95625 150662.965887 34666.95625 
" clip-path="url(#p28ad4e1748)" style="fill: none; stroke: #6b7280; stroke-width: 2; stroke-linecap: round"/>
    <path d="M 150654.965887 34662.95625 
L 150662.965887 34666.95625 
L 150654.965887 34670.95625 
" clip-path="url(#p28ad4e1748)" style="fill: none; stroke: #6b7280; stroke-width: 2; stroke-linecap: round"/>
   </g>
   <g id="text_37">
    <!-- Grayscale Input -->
    <g transform="translate(44594.214375 63782.074375) scale(0.12 -0.12)">
     <use xlink:href="#DejaVuSans-Bold-47"/>
     <use xlink:href="#DejaVuSans-Bold-72" transform="translate(82.080078 0)"/>
     <use xlink:href="#DejaVuSans-Bold-61" transform="translate(131.396484 0)"/>
     <use xlink:href="#DejaVuSans-Bold-79" transform="translate(195.751953 0)"/>
     <use xlink:href="#DejaVuSans-Bold-73" transform="translate(260.9375 0)"/>
     <use xlink:href="#DejaVuSans-Bold-63" transform="translate(320.458984 0)"/>
     <use xlink:href="#DejaVuSans-Bold-61" transform="translate(379.736328 0)"/>
     <use xlink:href="#DejaVuSans-Bold-6c" transform="translate(447.216797 0)"/>
     <use xlink:href="#DejaVuSans-Bold-65" transform="translate(481.494141 0)"/>
     <use xlink:href="#DejaVuSans-Bold-20" transform="translate(549.316406 0)"/>
     <use xlink:href="#DejaVuSans-Bold-49" transform="translate(584.130859 0)"/>
     <use xlink:href="#DejaVuSans-Bold-6e" transform="translate(621.337891 0)"/>
     <use xlink:href="#DejaVuSans-Bold-70" transform="translate(692.529297 0)"/>
     <use xlink:href="#DejaVuSans-Bold-75" transform="translate(764.111328 0)"/>
     <use xlink:href="#DejaVuSans-Bold-74" transform="translate(835.302734 0)"/>
    </g>
   </g>
   <g id="text_38">
    <!-- G -->
    <g transform="translate(40459.875469 68279.111875) scale(0.06 -0.06)">
     <use xlink:href="#DejaVuSans-47"/>
    </g>
   </g>
   <g id="text_39">
    <!-- G -->
    <g transform="translate(43249.875469 68279.111875) scale(0.06 -0.06)">
     <use xlink:href="#DejaVuSans-47"/>
    </g>
   </g>
   <g id="text_40">
    <!-- G -->
    <g transform="translate(46039.875469 68279.111875) scale(0.06 -0.06)">
     <use xlink:href="#DejaVuSans-47"/>
    </g>
   </g>
   <g id="text_41">
    <!-- G -->
    <g transform="translate(48829.875469 68279.111875) scale(0.06 -0.06)">
     <use xlink:href="#DejaVuSans-47"/>
    </g>
   </g>
   <g id="text_42">
    <!-- G -->
    <g transform="translate(40459.875469 71744.111875) scale(0.06 -0.06)">
     <use xlink:href="#DejaVuSans-47"/>
    </g>
   </g>
   <g id="text_43">
    <!-- G -->
    <g transform="translate(43249.875469 71744.111875) scale(0.06 -0.06)">
     <use xlink:href="#DejaVuSans-47"/>
    </g>
   </g>
   <g id="text_44">
    <!-- G -->
    <g transform="translate(46039.875469 71744.111875) scale(0.06 -0.06)">
     <use xlink:href="#DejaVuSans-47"/>
    </g>
   </g>
   <g id="text_45">
    <!-- G -->
    <g transform="translate(48829.875469 71744.111875) scale(0.06 -0.06)">
     <use xlink:href="#DejaVuSans-47"/>
    </g>
   </g>
   <g id="text_46">
    <!-- G -->
    <g transform="translate(40459.875469 75209.111875) scale(0.06 -0.06)">
     <use xlink:href="#DejaVuSans-47"/>
    </g>
   </g>
   <g id="text_47">
    <!-- G -->
    <g transform="translate(43249.875469 75209.111875) scale(0.06 -0.06)">
     <use xlink:href="#DejaVuSans-47"/>
    </g>
   </g>
   <g id="text_48">
    <!-- G -->
    <g transform="translate(46039.875469 75209.111875) scale(0.06 -0.06)">
     <use xlink:href="#DejaVuSans-47"/>
    </g>
   </g>
   <g id="text_49">
    <!-- G -->
    <g transform="translate(48829.875469 75209.111875) scale(0.06 -0.06)">
     <use xlink:href="#DejaVuSans-47"/>
    </g>
   </g>
   <g id="text_50">
    <!-- G -->
    <g transform="translate(40459.875469 78674.111875) scale(0.06 -0.06)">
     <use xlink:href="#DejaVuSans-47"/>
    </g>
   </g>
   <g id="text_51">
    <!-- G -->
    <g transform="translate(43249.875469 78674.111875) scale(0.06 -0.06)">
     <use xlink:href="#DejaVuSans-47"/>
    </g>
   </g>
   <g id="text_52">
    <!-- G -->
    <g transform="translate(46039.875469 78674.111875) scale(0.06 -0.06)">
     <use xlink:href="#DejaVuSans-47"/>
    </g>
   </g>
   <g id="text_53">
    <!-- G -->
    <g transform="translate(48829.875469 78674.111875) scale(0.06 -0.06)">
     <use xlink:href="#DejaVuSans-47"/>
    </g>
   </g>
   <g id="text_54">
    <!-- CUDA Kernel (Threshold) -->
    <g transform="translate(111522.959063 63782.074375) scale(0.12 -0.12)">
     <defs>
      <path id="DejaVuSans-Bold-54" d="M 31 4666 
L 4331 4666 
L 4331 3756 
L 2784 3756 
L 2784 0 
L 1581 0 
L 1581 3756 
L 31 3756 
L 31 4666 
z
" transform="scale(0.015625)"/>
      <path id="DejaVuSans-Bold-68" d="M 4056 2131 
L 4056 0 
L 2931 0 
L 2931 347 
L 2931 1625 
Q 2931 2084 2911 2256 
Q 2891 2428 2841 2509 
Q 2775 2619 2662 2680 
Q 2550 2741 2406 2741 
Q 2056 2741 1856 2470 
Q 1656 2200 1656 1722 
L 1656 0 
L 538 0 
L 538 4863 
L 1656 4863 
L 1656 2988 
Q 1909 3294 2193 3439 
Q 2478 3584 2822 3584 
Q 3428 3584 3742 3212 
Q 4056 2841 4056 2131 
z
" transform="scale(0.015625)"/>
      <path id="DejaVuSans-Bold-6f" d="M 2203 2784 
Q 1831 2784 1636 2517 
Q 1441 2250 1441 1747 
Q 1441 1244 1636 976 
Q 1831 709 2203 709 
Q 2569 709 2762 976 
Q 2956 1244 2956 1747 
Q 2956 2250 2762 2517 
Q 2569 2784 2203 2784 
z
M 2203 3584 
Q 3106 3584 3614 3096 
Q 4122 2609 4122 1747 
Q 4122 884 3614 396 
Q 3106 -91 2203 -91 
Q 1297 -91 786 396 
Q 275 884 275 1747 
Q 275 2609 786 3096 
Q 1297 3584 2203 3584 
z
" transform="scale(0.015625)"/>
      <path id="DejaVuSans-Bold-64" d="M 2919 2988 
L 2919 4863 
L 4044 4863 
L 4044 0 
L 2919 0 
L 2919 506 
Q 2688 197 2409 53 
Q 2131 -91 1766 -91 
Q 1119 -91 703 423 
Q 288 938 288 1747 
Q 288 2556 703 3070 
Q 1119 3584 1766 3584 
Q 2128 3584 2408 3439 
Q 2688 3294 2919 2988 
z
M 2181 722 
Q 2541 722 2730 984 
Q 2919 1247 2919 1747 
Q 2919 2247 2730 2509 
Q 2541 2772 2181 2772 
Q 1825 2772 1636 2509 
Q 1447 2247 1447 1747 
Q 1447 1247 1636 984 
Q 1825 722 2181 722 
z
" transform="scale(0.015625)"/>
     </defs>
     <use xlink:href="#DejaVuSans-Bold-43"/>
     <use xlink:href="#DejaVuSans-Bold-55" transform="translate(73.388672 0)"/>
     <use xlink:href="#DejaVuSans-Bold-44" transform="translate(154.589844 0)"/>
     <use xlink:href="#DejaVuSans-Bold-41" transform="translate(237.597656 0)"/>
     <use xlink:href="#DejaVuSans-Bold-20" transform="translate(314.990234 0)"/>
     <use xlink:href="#DejaVuSans-Bold-4b" transform="translate(349.804688 0)"/>
     <use xlink:href="#DejaVuSans-Bold-65" transform="translate(425.544922 0)"/>
     <use xlink:href="#DejaVuSans-Bold-72" transform="translate(493.367188 0)"/>
     <use xlink:href="#DejaVuSans-Bold-6e" transform="translate(542.683594 0)"/>
     <use xlink:href="#DejaVuSans-Bold-65" transform="translate(613.875 0)"/>
     <use xlink:href="#DejaVuSans-Bold-6c" transform="translate(681.697266 0)"/>
     <use xlink:href="#DejaVuSans-Bold-20" transform="translate(715.974609 0)"/>
     <use xlink:href="#DejaVuSans-Bold-28" transform="translate(750.789062 0)"/>
     <use xlink:href="#DejaVuSans-Bold-54" transform="translate(796.492188 0)"/>
     <use xlink:href="#DejaVuSans-Bold-68" transform="translate(864.705078 0)"/>
     <use xlink:href="#DejaVuSans-Bold-72" transform="translate(935.896484 0)"/>
     <use xlink:href="#DejaVuSans-Bold-65" transform="translate(985.212891 0)"/>
     <use xlink:href="#DejaVuSans-Bold-73" transform="translate(1053.035156 0)"/>
     <use xlink:href="#DejaVuSans-Bold-68" transform="translate(1112.556641 0)"/>
     <use xlink:href="#DejaVuSans-Bold-6f" transform="translate(1183.748047 0)"/>
     <use xlink:href="#DejaVuSans-Bold-6c" transform="translate(1252.449219 0)"/>
     <use xlink:href="#DejaVuSans-Bold-64" transform="translate(1286.726562 0)"/>
     <use xlink:href="#DejaVuSans-Bold-29" transform="translate(1358.308594 0)"/>
    </g>
   </g>
   <g id="text_55">
    <!-- If G &lt; T, pixel = Black, else White. -->
    <g transform="translate(111521.132031 76249.715625) scale(0.1 -0.1)">
     <defs>
      <path id="DejaVuSans-49" d="M 628 4666 
L 1259 4666 
L 1259 0 
L 628 0 
L 628 4666 
z
" transform="scale(0.015625)"/>
      <path id="DejaVuSans-66" d="M 2375 4863 
L 2375 4384 
L 1825 4384 
Q 1516 4384 1395 4259 
Q 1275 4134 1275 3809 
L 1275 3500 
L 2222 3500 
L 2222 3053 
L 1275 3053 
L 1275 0 
L 697 0 
L 697 3053 
L 147 3053 
L 147 3500 
L 697 3500 
L 697 3744 
Q 697 4328 969 4595 
Q 1241 4863 1831 4863 
L 2375 4863 
z
" transform="scale(0.015625)"/>
      <path id="DejaVuSans-3c" d="M 4684 3150 
L 1459 2003 
L 4684 863 
L 4684 294 
L 678 1747 
L 678 2266 
L 4684 3719 
L 4684 3150 
z
" transform="scale(0.015625)"/>
      <path id="DejaVuSans-54" d="M -19 4666 
L 3928 4666 
L 3928 4134 
L 2272 4134 
L 2272 0 
L 1638 0 
L 1638 4134 
L -19 4134 
L -19 4666 
z
" transform="scale(0.015625)"/>
      <path id="DejaVuSans-70" d="M 1159 525 
L 1159 -1331 
L 581 -1331 
L 581 3500 
L 1159 3500 
L 1159 2969 
Q 1341 3281 1617 3432 
Q 1894 3584 2278 3584 
Q 2916 3584 3314 3078 
Q 3713 2572 3713 1747 
Q 3713 922 3314 415 
Q 2916 -91 2278 -91 
Q 1894 -91 1617 61 
Q 1341 213 1159 525 
z
M 3116 1747 
Q 3116 2381 2855 2742 
Q 2594 3103 2138 3103 
Q 1681 3103 1420 2742 
Q 1159 2381 1159 1747 
Q 1159 1113 1420 752 
Q 1681 391 2138 391 
Q 2594 391 2855 752 
Q 3116 1113 3116 1747 
z
" transform="scale(0.015625)"/>
      <path id="DejaVuSans-69" d="M 603 3500 
L 1178 3500 
L 1178 0 
L 603 0 
L 603 3500 
z
M 603 4863 
L 1178 4863 
L 1178 4134 
L 603 4134 
L 603 4863 
z
" transform="scale(0.015625)"/>
      <path id="DejaVuSans-78" d="M 3513 3500 
L 2247 1797 
L 3578 0 
L 2900 0 
L 1881 1375 
L 863 0 
L 184 0 
L 1544 1831 
L 300 3500 
L 978 3500 
L 1906 2253 
L 2834 3500 
L 3513 3500 
z
" transform="scale(0.015625)"/>
      <path id="DejaVuSans-3d" d="M 678 2906 
L 4684 2906 
L 4684 2381 
L 678 2381 
L 678 2906 
z
M 678 1631 
L 4684 1631 
L 4684 1100 
L 678 1100 
L 678 1631 
z
" transform="scale(0.015625)"/>
      <path id="DejaVuSans-6b" d="M 581 4863 
L 1159 4863 
L 1159 1991 
L 2875 3500 
L 3609 3500 
L 1753 1863 
L 3688 0 
L 2938 0 
L 1159 1709 
L 1159 0 
L 581 0 
L 581 4863 
z
" transform="scale(0.015625)"/>
      <path id="DejaVuSans-57" d="M 213 4666 
L 850 4666 
L 1831 722 
L 2809 4666 
L 3519 4666 
L 4500 722 
L 5478 4666 
L 6119 4666 
L 4947 0 
L 4153 0 
L 3169 4050 
L 2175 0 
L 1381 0 
L 213 4666 
z
" transform="scale(0.015625)"/>
      <path id="DejaVuSans-68" d="M 3513 2113 
L 3513 0 
L 2938 0 
L 2938 2094 
Q 2938 2591 2744 2837 
Q 2550 3084 2163 3084 
Q 1697 3084 1428 2787 
Q 1159 2491 1159 1978 
L 1159 0 
L 581 0 
L 581 4863 
L 1159 4863 
L 1159 2956 
Q 1366 3272 1645 3428 
Q 1925 3584 2291 3584 
Q 2894 3584 3203 3211 
Q 3513 2838 3513 2113 
z
" transform="scale(0.015625)"/>
     </defs>
     <use xlink:href="#DejaVuSans-49"/>
     <use xlink:href="#DejaVuSans-66" transform="translate(29.492188 0)"/>
     <use xlink:href="#DejaVuSans-20" transform="translate(64.697266 0)"/>
     <use xlink:href="#DejaVuSans-47" transform="translate(96.484375 0)"/>
     <use xlink:href="#DejaVuSans-20" transform="translate(173.974609 0)"/>
     <use xlink:href="#DejaVuSans-3c" transform="translate(205.761719 0)"/>
     <use xlink:href="#DejaVuSans-20" transform="translate(289.550781 0)"/>
     <use xlink:href="#DejaVuSans-54" transform="translate(321.337891 0)"/>
     <use xlink:href="#DejaVuSans-2c" transform="translate(382.421875 0)"/>
     <use xlink:href="#DejaVuSans-20" transform="translate(414.208984 0)"/>
     <use xlink:href="#DejaVuSans-70" transform="translate(445.996094 0)"/>
     <use xlink:href="#DejaVuSans-69" transform="translate(509.472656 0)"/>
     <use xlink:href="#DejaVuSans-78" transform="translate(537.255859 0)"/>
     <use xlink:href="#DejaVuSans-65" transform="translate(593.310547 0)"/>
     <use xlink:href="#DejaVuSans-6c" transform="translate(654.833984 0)"/>
     <use xlink:href="#DejaVuSans-20" transform="translate(682.617188 0)"/>
     <use xlink:href="#DejaVuSans-3d" transform="translate(714.404297 0)"/>
     <use xlink:href="#DejaVuSans-20" transform="translate(798.193359 0)"/>
     <use xlink:href="#DejaVuSans-42" transform="translate(829.980469 0)"/>
     <use xlink:href="#DejaVuSans-6c" transform="translate(898.583984 0)"/>
     <use xlink:href="#DejaVuSans-61" transform="translate(926.367188 0)"/>
     <use xlink:href="#DejaVuSans-63" transform="translate(987.646484 0)"/>
     <use xlink:href="#DejaVuSans-6b" transform="translate(1042.626953 0)"/>
     <use xlink:href="#DejaVuSans-2c" transform="translate(1100.537109 0)"/>
     <use xlink:href="#DejaVuSans-20" transform="translate(1132.324219 0)"/>
     <use xlink:href="#DejaVuSans-65" transform="translate(1164.111328 0)"/>
     <use xlink:href="#DejaVuSans-6c" transform="translate(1225.634766 0)"/>
     <use xlink:href="#DejaVuSans-73" transform="translate(1253.417969 0)"/>
     <use xlink:href="#DejaVuSans-65" transform="translate(1305.517578 0)"/>
     <use xlink:href="#DejaVuSans-20" transform="translate(1367.041016 0)"/>
     <use xlink:href="#DejaVuSans-57" transform="translate(1398.828125 0)"/>
     <use xlink:href="#DejaVuSans-68" transform="translate(1497.705078 0)"/>
     <use xlink:href="#DejaVuSans-69" transform="translate(1561.083984 0)"/>
     <use xlink:href="#DejaVuSans-74" transform="translate(1588.867188 0)"/>
     <use xlink:href="#DejaVuSans-65" transform="translate(1628.076172 0)"/>
     <use xlink:href="#DejaVuSans-2e" transform="translate(1689.599609 0)"/>
    </g>
   </g>
   <g id="text_56">
    <!-- Threshold Output -->
    <g transform="translate(178507.72875 63782.074375) scale(0.12 -0.12)">
     <use xlink:href="#DejaVuSans-Bold-54"/>
     <use xlink:href="#DejaVuSans-Bold-68" transform="translate(68.212891 0)"/>
     <use xlink:href="#DejaVuSans-Bold-72" transform="translate(139.404297 0)"/>
     <use xlink:href="#DejaVuSans-Bold-65" transform="translate(188.720703 0)"/>
     <use xlink:href="#DejaVuSans-Bold-73" transform="translate(256.542969 0)"/>
     <use xlink:href="#DejaVuSans-Bold-68" transform="translate(316.064453 0)"/>
     <use xlink:href="#DejaVuSans-Bold-6f" transform="translate(387.255859 0)"/>
     <use xlink:href="#DejaVuSans-Bold-6c" transform="translate(455.957031 0)"/>
     <use xlink:href="#DejaVuSans-Bold-64" transform="translate(490.234375 0)"/>
     <use xlink:href="#DejaVuSans-Bold-20" transform="translate(561.816406 0)"/>
     <use xlink:href="#DejaVuSans-Bold-4f" transform="translate(596.630859 0)"/>
     <use xlink:href="#DejaVuSans-Bold-75" transform="translate(681.640625 0)"/>
     <use xlink:href="#DejaVuSans-Bold-74" transform="translate(752.832031 0)"/>
     <use xlink:href="#DejaVuSans-Bold-70" transform="translate(800.634766 0)"/>
     <use xlink:href="#DejaVuSans-Bold-75" transform="translate(872.216797 0)"/>
     <use xlink:href="#DejaVuSans-Bold-74" transform="translate(943.408203 0)"/>
    </g>
   </g>
   <g id="patch_109">
    <path d="M 61389.198224 76246.95625 
Q 72547.200089 76246.95625 83702.965887 76246.95625 
" clip-path="url(#p28ad4e1748)" style="fill: none; stroke: #6b7280; stroke-width: 2; stroke-linecap: round"/>
    <path d="M 83694.965887 76242.95625 
L 83702.965887 76246.95625 
L 83694.965887 76250.95625 
" clip-path="url(#p28ad4e1748)" style="fill: none; stroke: #6b7280; stroke-width: 2; stroke-linecap: round"/>
   </g>
   <g id="patch_110">
    <path d="M 128349.198224 76246.95625 
Q 139507.200089 76246.95625 150662.965887 76246.95625 
" clip-path="url(#p28ad4e1748)" style="fill: none; stroke: #6b7280; stroke-width: 2; stroke-linecap: round"/>
    <path d="M 150654.965887 76242.95625 
L 150662.965887 76246.95625 
L 150654.965887 76250.95625 
" clip-path="url(#p28ad4e1748)" style="fill: none; stroke: #6b7280; stroke-width: 2; stroke-linecap: round"/>
   </g>
   <g id="text_57">
    <!-- Input Image -->
    <g transform="translate(44606.27625 105361.980625) scale(0.12 -0.12)">
     <use xlink:href="#DejaVuSans-Bold-49"/>
     <use xlink:href="#DejaVuSans-Bold-6e" transform="translate(37.207031 0)"/>
     <use xlink:href="#DejaVuSans-Bold-70" transform="translate(108.398438 0)"/>
     <use xlink:href="#DejaVuSans-Bold-75" transform="translate(179.980469 0)"/>
     <use xlink:href="#DejaVuSans-Bold-74" transform="translate(251.171875 0)"/>
     <use xlink:href="#DejaVuSans-Bold-20" transform="translate(298.974609 0)"/>
     <use xlink:href="#DejaVuSans-Bold-49" transform="translate(333.789062 0)"/>
     <use xlink:href="#DejaVuSans-Bold-6d" transform="translate(370.996094 0)"/>
     <use xlink:href="#DejaVuSans-Bold-61" transform="translate(475.195312 0)"/>
     <use xlink:href="#DejaVuSans-Bold-67" transform="translate(542.675781 0)"/>
     <use xlink:href="#DejaVuSans-Bold-65" transform="translate(614.257812 0)"/>
    </g>
   </g>
   <g id="text_58">
    <!-- RGB -->
    <g transform="translate(40455.732656 109859.111875) scale(0.06 -0.06)">
     <use xlink:href="#DejaVuSans-52"/>
     <use xlink:href="#DejaVuSans-47" transform="translate(69.482422 0)"/>
     <use xlink:href="#DejaVuSans-42" transform="translate(146.972656 0)"/>
    </g>
   </g>
   <g id="text_59">
    <!-- RGB -->
    <g transform="translate(43245.732656 109859.111875) scale(0.06 -0.06)">
     <use xlink:href="#DejaVuSans-52"/>
     <use xlink:href="#DejaVuSans-47" transform="translate(69.482422 0)"/>
     <use xlink:href="#DejaVuSans-42" transform="translate(146.972656 0)"/>
    </g>
   </g>
   <g id="text_60">
    <!-- RGB -->
    <g transform="translate(46035.732656 109859.111875) scale(0.06 -0.06)">
     <use xlink:href="#DejaVuSans-52"/>
     <use xlink:href="#DejaVuSans-47" transform="translate(69.482422 0)"/>
     <use xlink:href="#DejaVuSans-42" transform="translate(146.972656 0)"/>
    </g>
   </g>
   <g id="text_61">
    <!-- RGB -->
    <g transform="translate(48825.732656 109859.111875) scale(0.06 -0.06)">
     <use xlink:href="#DejaVuSans-52"/>
     <use xlink:href="#DejaVuSans-47" transform="translate(69.482422 0)"/>
     <use xlink:href="#DejaVuSans-42" transform="translate(146.972656 0)"/>
    </g>
   </g>
   <g id="text_62">
    <!-- RGB -->
    <g transform="translate(40455.732656 113324.111875) scale(0.06 -0.06)">
     <use xlink:href="#DejaVuSans-52"/>
     <use xlink:href="#DejaVuSans-47" transform="translate(69.482422 0)"/>
     <use xlink:href="#DejaVuSans-42" transform="translate(146.972656 0)"/>
    </g>
   </g>
   <g id="text_63">
    <!-- RGB -->
    <g transform="translate(43245.732656 113324.111875) scale(0.06 -0.06)">
     <use xlink:href="#DejaVuSans-52"/>
     <use xlink:href="#DejaVuSans-47" transform="translate(69.482422 0)"/>
     <use xlink:href="#DejaVuSans-42" transform="translate(146.972656 0)"/>
    </g>
   </g>
   <g id="text_64">
    <!-- RGB -->
    <g transform="translate(46035.732656 113324.111875) scale(0.06 -0.06)">
     <use xlink:href="#DejaVuSans-52"/>
     <use xlink:href="#DejaVuSans-47" transform="translate(69.482422 0)"/>
     <use xlink:href="#DejaVuSans-42" transform="translate(146.972656 0)"/>
    </g>
   </g>
   <g id="text_65">
    <!-- RGB -->
    <g transform="translate(48825.732656 113324.111875) scale(0.06 -0.06)">
     <use xlink:href="#DejaVuSans-52"/>
     <use xlink:href="#DejaVuSans-47" transform="translate(69.482422 0)"/>
     <use xlink:href="#DejaVuSans-42" transform="translate(146.972656 0)"/>
    </g>
   </g>
   <g id="text_66">
    <!-- RGB -->
    <g transform="translate(40455.732656 116789.111875) scale(0.06 -0.06)">
     <use xlink:href="#DejaVuSans-52"/>
     <use xlink:href="#DejaVuSans-47" transform="translate(69.482422 0)"/>
     <use xlink:href="#DejaVuSans-42" transform="translate(146.972656 0)"/>
    </g>
   </g>
   <g id="text_67">
    <!-- RGB -->
    <g transform="translate(43245.732656 116789.111875) scale(0.06 -0.06)">
     <use xlink:href="#DejaVuSans-52"/>
     <use xlink:href="#DejaVuSans-47" transform="translate(69.482422 0)"/>
     <use xlink:href="#DejaVuSans-42" transform="translate(146.972656 0)"/>
    </g>
   </g>
   <g id="text_68">
    <!-- RGB -->
    <g transform="translate(46035.732656 116789.111875) scale(0.06 -0.06)">
     <use xlink:href="#DejaVuSans-52"/>
     <use xlink:href="#DejaVuSans-47" transform="translate(69.482422 0)"/>
     <use xlink:href="#DejaVuSans-42" transform="translate(146.972656 0)"/>
    </g>
   </g>
   <g id="text_69">
    <!-- RGB -->
    <g transform="translate(48825.732656 116789.111875) scale(0.06 -0.06)">
     <use xlink:href="#DejaVuSans-52"/>
     <use xlink:href="#DejaVuSans-47" transform="translate(69.482422 0)"/>
     <use xlink:href="#DejaVuSans-42" transform="translate(146.972656 0)"/>
    </g>
   </g>
   <g id="text_70">
    <!-- RGB -->
    <g transform="translate(40455.732656 120254.111875) scale(0.06 -0.06)">
     <use xlink:href="#DejaVuSans-52"/>
     <use xlink:href="#DejaVuSans-47" transform="translate(69.482422 0)"/>
     <use xlink:href="#DejaVuSans-42" transform="translate(146.972656 0)"/>
    </g>
   </g>
   <g id="text_71">
    <!-- RGB -->
    <g transform="translate(43245.732656 120254.111875) scale(0.06 -0.06)">
     <use xlink:href="#DejaVuSans-52"/>
     <use xlink:href="#DejaVuSans-47" transform="translate(69.482422 0)"/>
     <use xlink:href="#DejaVuSans-42" transform="translate(146.972656 0)"/>
    </g>
   </g>
   <g id="text_72">
    <!-- RGB -->
    <g transform="translate(46035.732656 120254.111875) scale(0.06 -0.06)">
     <use xlink:href="#DejaVuSans-52"/>
     <use xlink:href="#DejaVuSans-47" transform="translate(69.482422 0)"/>
     <use xlink:href="#DejaVuSans-42" transform="translate(146.972656 0)"/>
    </g>
   </g>
   <g id="text_73">
    <!-- RGB -->
    <g transform="translate(48825.732656 120254.111875) scale(0.06 -0.06)">
     <use xlink:href="#DejaVuSans-52"/>
     <use xlink:href="#DejaVuSans-47" transform="translate(69.482422 0)"/>
     <use xlink:href="#DejaVuSans-42" transform="translate(146.972656 0)"/>
    </g>
   </g>
   <g id="text_74">
    <!-- CUDA Kernel (Fused) -->
    <g transform="translate(111536.6625 105362.074375) scale(0.12 -0.12)">
     <defs>
      <path id="DejaVuSans-Bold-46" d="M 588 4666 
L 3834 4666 
L 3834 3756 
L 1791 3756 
L 1791 2888 
L 3713 2888 
L 3713 1978 
L 1791 1978 
L 1791 0 
L 588 0 
L 588 4666 
z
" transform="scale(0.015625)"/>
     </defs>
     <use xlink:href="#DejaVuSans-Bold-43"/>
     <use xlink:href="#DejaVuSans-Bold-55" transform="translate(73.388672 0)"/>
     <use xlink:href="#DejaVuSans-Bold-44" transform="translate(154.589844 0)"/>
     <use xlink:href="#DejaVuSans-Bold-41" transform="translate(237.597656 0)"/>
     <use xlink:href="#DejaVuSans-Bold-20" transform="translate(314.990234 0)"/>
     <use xlink:href="#DejaVuSans-Bold-4b" transform="translate(349.804688 0)"/>
     <use xlink:href="#DejaVuSans-Bold-65" transform="translate(425.544922 0)"/>
     <use xlink:href="#DejaVuSans-Bold-72" transform="translate(493.367188 0)"/>
     <use xlink:href="#DejaVuSans-Bold-6e" transform="translate(542.683594 0)"/>
     <use xlink:href="#DejaVuSans-Bold-65" transform="translate(613.875 0)"/>
     <use xlink:href="#DejaVuSans-Bold-6c" transform="translate(681.697266 0)"/>
     <use xlink:href="#DejaVuSans-Bold-20" transform="translate(715.974609 0)"/>
     <use xlink:href="#DejaVuSans-Bold-28" transform="translate(750.789062 0)"/>
     <use xlink:href="#DejaVuSans-Bold-46" transform="translate(796.492188 0)"/>
     <use xlink:href="#DejaVuSans-Bold-75" transform="translate(859.802734 0)"/>
     <use xlink:href="#DejaVuSans-Bold-73" transform="translate(930.994141 0)"/>
     <use xlink:href="#DejaVuSans-Bold-65" transform="translate(990.515625 0)"/>
     <use xlink:href="#DejaVuSans-Bold-64" transform="translate(1058.337891 0)"/>
     <use xlink:href="#DejaVuSans-Bold-29" transform="translate(1129.919922 0)"/>
    </g>
   </g>
   <g id="text_75">
    <!-- Convert to Grayscale then apply Threshold in one pass. -->
    <g transform="translate(111468.1875 117829.715625) scale(0.1 -0.1)">
     <defs>
      <path id="DejaVuSans-64" d="M 2906 2969 
L 2906 4863 
L 3481 4863 
L 3481 0 
L 2906 0 
L 2906 525 
Q 2725 213 2448 61 
Q 2172 -91 1784 -91 
Q 1150 -91 751 415 
Q 353 922 353 1747 
Q 353 2572 751 3078 
Q 1150 3584 1784 3584 
Q 2172 3584 2448 3432 
Q 2725 3281 2906 2969 
z
M 947 1747 
Q 947 1113 1208 752 
Q 1469 391 1925 391 
Q 2381 391 2643 752 
Q 2906 1113 2906 1747 
Q 2906 2381 2643 2742 
Q 2381 3103 1925 3103 
Q 1469 3103 1208 2742 
Q 947 2381 947 1747 
z
" transform="scale(0.015625)"/>
     </defs>
     <use xlink:href="#DejaVuSans-43"/>
     <use xlink:href="#DejaVuSans-6f" transform="translate(69.824219 0)"/>
     <use xlink:href="#DejaVuSans-6e" transform="translate(131.005859 0)"/>
     <use xlink:href="#DejaVuSans-76" transform="translate(194.384766 0)"/>
     <use xlink:href="#DejaVuSans-65" transform="translate(253.564453 0)"/>
     <use xlink:href="#DejaVuSans-72" transform="translate(315.087891 0)"/>
     <use xlink:href="#DejaVuSans-74" transform="translate(356.201172 0)"/>
     <use xlink:href="#DejaVuSans-20" transform="translate(395.410156 0)"/>
     <use xlink:href="#DejaVuSans-74" transform="translate(427.197266 0)"/>
     <use xlink:href="#DejaVuSans-6f" transform="translate(466.40625 0)"/>
     <use xlink:href="#DejaVuSans-20" transform="translate(527.587891 0)"/>
     <use xlink:href="#DejaVuSans-47" transform="translate(559.375 0)"/>
     <use xlink:href="#DejaVuSans-72" transform="translate(636.865234 0)"/>
     <use xlink:href="#DejaVuSans-61" transform="translate(677.978516 0)"/>
     <use xlink:href="#DejaVuSans-79" transform="translate(739.257812 0)"/>
     <use xlink:href="#DejaVuSans-73" transform="translate(798.4375 0)"/>
     <use xlink:href="#DejaVuSans-63" transform="translate(850.537109 0)"/>
     <use xlink:href="#DejaVuSans-61" transform="translate(905.517578 0)"/>
     <use xlink:href="#DejaVuSans-6c" transform="translate(966.796875 0)"/>
     <use xlink:href="#DejaVuSans-65" transform="translate(994.580078 0)"/>
     <use xlink:href="#DejaVuSans-20" transform="translate(1056.103516 0)"/>
     <use xlink:href="#DejaVuSans-74" transform="translate(1087.890625 0)"/>
     <use xlink:href="#DejaVuSans-68" transform="translate(1127.099609 0)"/>
     <use xlink:href="#DejaVuSans-65" transform="translate(1190.478516 0)"/>
     <use xlink:href="#DejaVuSans-6e" transform="translate(1252.001953 0)"/>
     <use xlink:href="#DejaVuSans-20" transform="translate(1315.380859 0)"/>
     <use xlink:href="#DejaVuSans-61" transform="translate(1347.167969 0)"/>
     <use xlink:href="#DejaVuSans-70" transform="translate(1408.447266 0)"/>
     <use xlink:href="#DejaVuSans-70" transform="translate(1471.923828 0)"/>
     <use xlink:href="#DejaVuSans-6c" transform="translate(1535.400391 0)"/>
     <use xlink:href="#DejaVuSans-79" transform="translate(1563.183594 0)"/>
     <use xlink:href="#DejaVuSans-20" transform="translate(1622.363281 0)"/>
     <use xlink:href="#DejaVuSans-54" transform="translate(1654.150391 0)"/>
     <use xlink:href="#DejaVuSans-68" transform="translate(1715.234375 0)"/>
     <use xlink:href="#DejaVuSans-72" transform="translate(1778.613281 0)"/>
     <use xlink:href="#DejaVuSans-65" transform="translate(1817.476562 0)"/>
     <use xlink:href="#DejaVuSans-73" transform="translate(1879 0)"/>
     <use xlink:href="#DejaVuSans-68" transform="translate(1931.099609 0)"/>
     <use xlink:href="#DejaVuSans-6f" transform="translate(1994.478516 0)"/>
     <use xlink:href="#DejaVuSans-6c" transform="translate(2055.660156 0)"/>
     <use xlink:href="#DejaVuSans-64" transform="translate(2083.443359 0)"/>
     <use xlink:href="#DejaVuSans-20" transform="translate(2146.919922 0)"/>
     <use xlink:href="#DejaVuSans-69" transform="translate(2178.707031 0)"/>
     <use xlink:href="#DejaVuSans-6e" transform="translate(2206.490234 0)"/>
     <use xlink:href="#DejaVuSans-20" transform="translate(2269.869141 0)"/>
     <use xlink:href="#DejaVuSans-6f" transform="translate(2301.65625 0)"/>
     <use xlink:href="#DejaVuSans-6e" transform="translate(2362.837891 0)"/>
     <use xlink:href="#DejaVuSans-65" transform="translate(2426.216797 0)"/>
     <use xlink:href="#DejaVuSans-20" transform="translate(2487.740234 0)"/>
     <use xlink:href="#DejaVuSans-70" transform="translate(2519.527344 0)"/>
     <use xlink:href="#DejaVuSans-61" transform="translate(2583.003906 0)"/>
     <use xlink:href="#DejaVuSans-73" transform="translate(2644.283203 0)"/>
     <use xlink:href="#DejaVuSans-73" transform="translate(2696.382812 0)"/>
     <use xlink:href="#DejaVuSans-2e" transform="translate(2748.482422 0)"/>
    </g>
   </g>
   <g id="text_76">
    <!-- Threshold Output -->
    <g transform="translate(178507.72875 105362.074375) scale(0.12 -0.12)">
     <use xlink:href="#DejaVuSans-Bold-54"/>
     <use xlink:href="#DejaVuSans-Bold-68" transform="translate(68.212891 0)"/>
     <use xlink:href="#DejaVuSans-Bold-72" transform="translate(139.404297 0)"/>
     <use xlink:href="#DejaVuSans-Bold-65" transform="translate(188.720703 0)"/>
     <use xlink:href="#DejaVuSans-Bold-73" transform="translate(256.542969 0)"/>
     <use xlink:href="#DejaVuSans-Bold-68" transform="translate(316.064453 0)"/>
     <use xlink:href="#DejaVuSans-Bold-6f" transform="translate(387.255859 0)"/>
     <use xlink:href="#DejaVuSans-Bold-6c" transform="translate(455.957031 0)"/>
     <use xlink:href="#DejaVuSans-Bold-64" transform="translate(490.234375 0)"/>
     <use xlink:href="#DejaVuSans-Bold-20" transform="translate(561.816406 0)"/>
     <use xlink:href="#DejaVuSans-Bold-4f" transform="translate(596.630859 0)"/>
     <use xlink:href="#DejaVuSans-Bold-75" transform="translate(681.640625 0)"/>
     <use xlink:href="#DejaVuSans-Bold-74" transform="translate(752.832031 0)"/>
     <use xlink:href="#DejaVuSans-Bold-70" transform="translate(800.634766 0)"/>
     <use xlink:href="#DejaVuSans-Bold-75" transform="translate(872.216797 0)"/>
     <use xlink:href="#DejaVuSans-Bold-74" transform="translate(943.408203 0)"/>
    </g>
   </g>
   <g id="patch_111">
    <path d="M 61389.198224 117826.95625 
Q 72547.200089 117826.95625 83702.965887 117826.95625 
" clip-path="url(#p28ad4e1748)" style="fill: none; stroke: #6b7280; stroke-width: 2; stroke-linecap: round"/>
    <path d="M 83694.965887 117822.95625 
L 83702.965887 117826.95625 
L 83694.965887 117830.95625 
" clip-path="url(#p28ad4e1748)" style="fill: none; stroke: #6b7280; stroke-width: 2; stroke-linecap: round"/>
   </g>
   <g id="patch_112">
    <path d="M 128349.198224 117826.95625 
Q 139507.200089 117826.95625 150662.965887 117826.95625 
" clip-path="url(#p28ad4e1748)" style="fill: none; stroke: #6b7280; stroke-width: 2; stroke-linecap: round"/>
    <path d="M 150654.965887 117822.95625 
L 150662.965887 117826.95625 
L 150654.965887 117830.95625 
" clip-path="url(#p28ad4e1748)" style="fill: none; stroke: #6b7280; stroke-width: 2; stroke-linecap: round"/>
   </g>
   <g id="text_77">
    <!-- CUDA Kernels: Grayscale &amp; Thresholding -->
    <g transform="translate(111377.66875 22.396875) scale(0.2 -0.2)">
     <defs>
      <path id="DejaVuSans-Bold-3a" d="M 716 3500 
L 1844 3500 
L 1844 2291 
L 716 2291 
L 716 3500 
z
M 716 1209 
L 1844 1209 
L 1844 0 
L 716 0 
L 716 1209 
z
" transform="scale(0.015625)"/>
      <path id="DejaVuSans-Bold-26" d="M 2497 3097 
L 3775 1691 
Q 3941 1909 4027 2181 
Q 4113 2453 4128 2797 
L 5100 2797 
Q 5053 2228 4879 1784 
Q 4706 1341 4397 1006 
L 5313 0 
L 3988 0 
L 3681 341 
Q 3353 122 2990 15 
Q 2628 -91 2222 -91 
Q 1400 -91 892 342 
Q 384 775 384 1459 
Q 384 1916 607 2267 
Q 831 2619 1338 2950 
Q 1206 3116 1143 3281 
Q 1081 3447 1081 3628 
Q 1081 4138 1478 4444 
Q 1875 4750 2534 4750 
Q 2819 4750 3126 4704 
Q 3434 4659 3769 4569 
L 3769 3700 
Q 3475 3850 3212 3922 
Q 2950 3994 2700 3994 
Q 2459 3994 2326 3901 
Q 2194 3809 2194 3641 
Q 2194 3534 2270 3398 
Q 2347 3263 2497 3097 
z
M 1875 2322 
Q 1672 2175 1569 1989 
Q 1466 1803 1466 1581 
Q 1466 1222 1731 969 
Q 1997 716 2369 716 
Q 2578 716 2759 780 
Q 2941 844 3097 972 
L 1875 2322 
z
" transform="scale(0.015625)"/>
      <path id="DejaVuSans-Bold-69" d="M 538 3500 
L 1656 3500 
L 1656 0 
L 538 0 
L 538 3500 
z
M 538 4863 
L 1656 4863 
L 1656 3950 
L 538 3950 
L 538 4863 
z
" transform="scale(0.015625)"/>
     </defs>
     <use xlink:href="#DejaVuSans-Bold-43"/>
     <use xlink:href="#DejaVuSans-Bold-55" transform="translate(73.388672 0)"/>
     <use xlink:href="#DejaVuSans-Bold-44" transform="translate(154.589844 0)"/>
     <use xlink:href="#DejaVuSans-Bold-41" transform="translate(237.597656 0)"/>
     <use xlink:href="#DejaVuSans-Bold-20" transform="translate(314.990234 0)"/>
     <use xlink:href="#DejaVuSans-Bold-4b" transform="translate(349.804688 0)"/>
     <use xlink:href="#DejaVuSans-Bold-65" transform="translate(425.544922 0)"/>
     <use xlink:href="#DejaVuSans-Bold-72" transform="translate(493.367188 0)"/>
     <use xlink:href="#DejaVuSans-Bold-6e" transform="translate(542.683594 0)"/>
     <use xlink:href="#DejaVuSans-Bold-65" transform="translate(613.875 0)"/>
     <use xlink:href="#DejaVuSans-Bold-6c" transform="translate(681.697266 0)"/>
     <use xlink:href="#DejaVuSans-Bold-73" transform="translate(715.974609 0)"/>
     <use xlink:href="#DejaVuSans-Bold-3a" transform="translate(775.496094 0)"/>
     <use xlink:href="#DejaVuSans-Bold-20" transform="translate(815.486328 0)"/>
     <use xlink:href="#DejaVuSans-Bold-47" transform="translate(850.300781 0)"/>
     <use xlink:href="#DejaVuSans-Bold-72" transform="translate(932.380859 0)"/>
     <use xlink:href="#DejaVuSans-Bold-61" transform="translate(981.697266 0)"/>
     <use xlink:href="#DejaVuSans-Bold-79" transform="translate(1046.052734 0)"/>
     <use xlink:href="#DejaVuSans-Bold-73" transform="translate(1111.238281 0)"/>
     <use xlink:href="#DejaVuSans-Bold-63" transform="translate(1170.759766 0)"/>
     <use xlink:href="#DejaVuSans-Bold-61" transform="translate(1230.037109 0)"/>
     <use xlink:href="#DejaVuSans-Bold-6c" transform="translate(1297.517578 0)"/>
     <use xlink:href="#DejaVuSans-Bold-65" transform="translate(1331.794922 0)"/>
     <use xlink:href="#DejaVuSans-Bold-20" transform="translate(1399.617188 0)"/>
     <use xlink:href="#DejaVuSans-Bold-26" transform="translate(1434.431641 0)"/>
     <use xlink:href="#DejaVuSans-Bold-20" transform="translate(1521.638672 0)"/>
     <use xlink:href="#DejaVuSans-Bold-54" transform="translate(1556.453125 0)"/>
     <use xlink:href="#DejaVuSans-Bold-68" transform="translate(1624.666016 0)"/>
     <use xlink:href="#DejaVuSans-Bold-72" transform="translate(1695.857422 0)"/>
     <use xlink:href="#DejaVuSans-Bold-65" transform="translate(1745.173828 0)"/>
     <use xlink:href="#DejaVuSans-Bold-73" transform="translate(1812.996094 0)"/>
     <use xlink:href="#DejaVuSans-Bold-68" transform="translate(1872.517578 0)"/>
     <use xlink:href="#DejaVuSans-Bold-6f" transform="translate(1943.708984 0)"/>
     <use xlink:href="#DejaVuSans-Bold-6c" transform="translate(2012.410156 0)"/>
     <use xlink:href="#DejaVuSans-Bold-64" transform="translate(2046.6875 0)"/>
     <use xlink:href="#DejaVuSans-Bold-69" transform="translate(2118.269531 0)"/>
     <use xlink:href="#DejaVuSans-Bold-6e" transform="translate(2152.546875 0)"/>
     <use xlink:href="#DejaVuSans-Bold-67" transform="translate(2223.738281 0)"/>
    </g>
   </g>
  </g>
 </g>
 <defs>
  <clipPath id="p28ad4e1748">
   <rect x="7.2" y="144160.95625" width="1116" height="1386"/>
  </clipPath>
 </defs>
</svg>
